<?xml version="1.0" encoding="utf-8" ?>
<svg baseProfile="full" height="200mm" version="1.1" viewBox="0,0,200,200" width="200mm" xmlns="http://www.w3.org/2000/svg" xmlns:ev="http://www.w3.org/2001/xml-events" xmlns:xlink="http://www.w3.org/1999/xlink"><defs /><rect fill="#1a1a1a" height="200" width="200" x="0" y="0" /><text alignment-baseline="middle" fill="#e1ed5e" style="dominant-baseline: central; font-size:9.0px; font-family:Arial;" text-anchor="middle" x="100.0" y="100.0">2024</text><line stroke="#e1ed5e" stroke-width="0.3" x1="100.0" x2="100.0" y1="15.0" y2="10.0" /><path d="M 100.0 14.0 a86.0,86.0 0 0,1 42.35913384403234,11.155469271406648" fill="none" id="id85" stroke="none" /><text fill="#e1ed5e" style="font-size:6.75px; font-family:Arial;" text-anchor="middle"><textPath startOffset="22.145653131862478" xlink:href="#id85">January</textPath></text><path d="M 100.0 79.0 l 0.0 -29.34295415959253 a50.34295415959253,50.34295415959253 0 0,0 0.8642037519296825,0.007418149831141077 l -0.5037108270808277 29.338630407955822" fill="red" stroke="none" /><path d="M 100.72087961077811 79.0123766808444 l 0.9197640534800546 -26.77792686646085 a47.7937181663837,47.7937181663837 0 0,0 0.8197174327921545,0.03520219359112674 l -1.3793072468730454 26.75819210444389" fill="red" stroke="none" /><path d="M 101.08105385017728 79.02784411241856 l 0.9369745170042446 -18.17705531512789 a39.20118845500849,39.20118845500849 0 0,0 0.6717509080311674,0.04041086652249818 l -1.2488697771678745 18.1582924707807" fill="red" stroke="none" /><path d="M 102.87502721639298 79.19773525538626 l 3.675544132332621 -26.594406371297357 a47.8471986417657,47.8471986417657 0 0,0 0.8126616439295259,0.11943327611697759 l -4.131530881869828 26.527392021881496" fill="red" stroke="none" /><path d="M 104.64783097203109 79.52079915486377 l 2.4994914437875133 -11.013220488449747 a32.29329371816638,32.29329371816638 0 0,0 0.5395561150256353,0.1273337740109159 l -2.6881797125530333 10.968690570792603" fill="red" stroke="none" /><path d="M 105.3480935250658 79.69241777938227 l 4.5808373232524575 -17.394185450427237 a38.987266553480474,38.987266553480474 0 0,0 0.6457379254293946,0.1759987430447889 l -4.878756649616545 17.312986213238307" fill="red" stroke="none" /><path d="M 106.38641147887787 79.99465700312896 l 8.183606220175003 -25.63502992680545 a47.909592529711375,47.909592529711375 0 0,0 0.7813307661898916,0.2568389420475951 l -8.622459724012637 25.490770063355836" fill="red" stroke="none" /><path d="M 107.06938296918511 80.22567764915836 l 3.057598151782526 -8.552646212015125 a30.08276740237691,30.08276740237691 0 0,0 0.48477784939190544,0.17801714116959405 l -3.203965152828556 8.498898221836809" fill="red" stroke="none" /><path d="M 108.07796709384702 80.6158196554323 l 3.7098303886003734 -8.902242416308253 a30.644312393887944,30.644312393887944 0 0,0 0.4838371016825389,0.20652128797579686 l -3.862102565453342 8.837246478673055" fill="red" stroke="none" /><path d="M 108.73861861582097 80.90454125486305 l 8.237891318225111 -18.0012792330005 a40.79668930390493,40.79668930390493 0 0,0 0.6343133092572671,0.29689065708899315 l -8.545693341353884 17.857212344340972" fill="red" stroke="none" /><path d="M 109.06512990194946 81.05736502329252 l 8.607256192980024 -17.985855026695518 a40.9393039049236,40.9393039049236 0 0,0 0.6313225700930924,0.3088115050099589 l -8.914739012335184 17.83544977158834" fill="red" stroke="none" /><path d="M 110.02825361518725 81.54914285379988 l 23.580868008547277 -43.3861411672108 a70.38030560271648,70.38030560271648 0 0,0 1.056561922886007,0.5860570881748213 l -24.322174119589388 42.97495116360283" fill="red" stroke="none" /><line stroke="#e1ed5e" stroke-width="0.3" x1="143.13028292997686" x2="145.6673583964461" y1="26.7553504044142" y2="22.446841604673864" /><path d="M 143.63769802327073 25.89364864446614 a86.0,86.0 0 0,1 29.32050498858742,28.57503671076993" fill="none" id="id86" stroke="none" /><text fill="#e1ed5e" style="font-size:6.75px; font-family:Arial;" text-anchor="middle"><textPath startOffset="20.669276256404974" xlink:href="#id86">February</textPath></text><path d="M 110.65571695917076 81.90426304109057 l 6.227895693029767 -10.576328434812517 a33.27376910016978,33.27376910016978 0 0,0 0.4897062902254236,0.2940545568758093 l -6.408534739812625 10.467859877400786" fill="red" stroke="none" /><line stroke="#e1ed5e" stroke-width="0.3" x1="172.87174338648825" x2="177.1583165268699" y1="56.24261187166439" y2="53.66864786411523" /><path d="M 173.72905801456457 55.72781907015455 a86.0,86.0 0 0,1 12.242430191666344,42.057860355516425" fill="none" id="id87" stroke="none" /><text fill="#e1ed5e" style="font-size:6.75px; font-family:Arial;" text-anchor="middle"><textPath startOffset="22.145653131862474" xlink:href="#id87">March</textPath></text><path d="M 118.36410011445183 89.81374322990088 l 31.357714244668816 -17.393595494952784 a56.85865874363328,56.85865874363328 0 0,0 0.4661182151119431,0.8576050158172774 l -31.6516778093961 16.852735645660903" fill="red" stroke="none" /><path d="M 118.8641267826498 90.77261029715802 l 40.13831390552781 -19.633660687753316 a65.68293718166385,65.68293718166385 0 0,0 0.48674416302776263,1.0171080951962022 l -40.46943732651549 18.94174009049201" fill="red" stroke="none" /><path d="M 119.83427380445688 93.10060997987247 l 26.771218462721947 -9.31241946689539 a49.3446519524618,49.3446519524618 0 0,0 0.2714298413308096,0.8024340959724284 l -26.927133725625122 8.851483696448799" fill="red" stroke="none" /><line stroke="#e1ed5e" stroke-width="0.3" x1="184.99686870605535" x2="189.99668451229388" y1="99.2704041080226" y2="99.22748670261217" /><path d="M 185.99683186730306 99.26182062694052 a86.0,86.0 0 0,1 -10.086455211305974,41.156179273409016" fill="none" id="id88" stroke="none" /><text fill="#e1ed5e" style="font-size:6.75px; font-family:Arial;" text-anchor="middle"><textPath startOffset="21.40746469413373" xlink:href="#id88">April</textPath></text><path d="M 120.86939407059847 102.33845913500097 l 26.662511100382595 2.987589981474089 a47.82937181663837,47.82937181663837 0 0,0 -0.09843265073456911,0.8151635524741042 l -26.60729636338836 -3.4448472108716017" fill="red" stroke="none" /><path d="M 120.82617615685814 102.69636545807757 l 26.69569269682155 3.456291885990777 a47.91850594227505,47.91850594227505 0 0,0 -0.11262100127300083,0.8148694631223866 l -26.632427178993336 -3.9140496573132486" fill="red" stroke="none" /><path d="M 120.35273937422433 105.17358676015961 l 26.209767088878014 6.662420301495862 a48.04329371816638,48.04329371816638 0 0,0 -0.2100418923864617,0.7975632773474493 l -26.091535715686824 -7.111364083216115" fill="red" stroke="none" /><path d="M 120.16314734710363 105.8691983318838 l 43.03068966945548 12.525606626787663 a65.81663837011885,65.81663837011885 0 0,0 -0.3250830446066208,1.082095727965237 l -42.809330304845226 -13.262439958343624" fill="red" stroke="none" /><path d="M 119.83427380445688 106.89939002012753 l 25.34005269584687 8.81458572180979 a47.82937181663837,47.82937181663837 0 0,0 -0.27640783002724983,0.7731618947622986 l -25.185004695775678 -9.24828257295301" fill="red" stroke="none" /><path d="M 119.4528033332814 107.91128576633889 l 24.93525724384967 10.140952043439489 a47.91850594227505,47.91850594227505 0 0,0 -0.31643134964849484,0.7593200463682898 l -24.75750004966469 -10.567504599249057" fill="red" stroke="none" /><path d="M 119.16976305983485 108.57439118712176 l 8.331849479317013 3.7267302952515644 a30.127334465195247,30.127334465195247 0 0,0 -0.21521753344223704,0.47028915115210174 l -8.26664748101972 -3.869208428618355" fill="red" stroke="none" /><path d="M 119.0197475246899 108.90220220490707 l 12.795543220133062 5.98896031187509 a35.12775891341256,35.12775891341256 0 0,0 -0.26031466230050376,0.5439575251958518 l -12.690849299872646 -6.207730339136045" fill="red" stroke="none" /><path d="M 118.70294669586154 109.54985784667822 l 16.1864636302469 8.264923662723643 a39.17444821731749,39.17444821731749 0 0,0 -0.31095544858026236,0.5962980736654118 l -16.042200112691688 -8.541567979493557" fill="red" stroke="none" /><line stroke="#e1ed5e" stroke-width="0.3" x1="174.33088141563837" x2="178.70328620479359" y1="141.23008692659167" y2="143.65538615756765" /><path d="M 175.20536237346943 141.71514677278685 a86.0,86.0 0 0,1 -30.301960400862466,31.631185727798858" fill="none" id="id89" stroke="none" /><text fill="#e1ed5e" style="font-size:6.75px; font-family:Arial;" text-anchor="middle"><textPath startOffset="22.145653131862474" xlink:href="#id89">May</textPath></text><path d="M 117.62189284568427 111.42229804090321 l 17.008567203347212 11.024747769530524 a41.269100169779286,41.269100169779286 0 0,0 -0.3904362681651254,0.5911702730433562 l -16.81680649626136 -11.31509792091294" fill="red" stroke="none" /><path d="M 117.21940702142032 112.02048342749411 l 18.35957149312727 12.81640677838082 a43.39049235993209,43.39049235993209 0 0,0 -0.43160089149242425,0.6071007047445393 l -18.136855503104883 -13.129684709834862" fill="red" stroke="none" /><path d="M 117.01052211995028 112.31430620078461 l 18.15129567468379 13.140138280463713 a43.408319185059426,43.408319185059426 0 0,0 -0.4421405622354658,0.5998485882260474 l -17.923053092864496 -13.449793177958638" fill="red" stroke="none" /><path d="M 115.16444852881244 114.52719865689866 l 19.431863373720187 18.61528554549111 a47.909592529711375,47.909592529711375 0 0,0 -0.5740326586648606,0.5890080773072631 l -19.10944391390452 -18.94611631486611" fill="red" stroke="none" /><path d="M 113.86319453409587 115.77377054828091 l 29.544609403945405 33.61634207254604 a65.75424448217318,65.75424448217318 0 0,0 -0.8542431994012722,0.7378749298844558 l -28.963186724781274 -34.11856113489521" fill="red" stroke="none" /><path d="M 113.59037401385874 116.0094264158162 l 28.88819739448409 34.03022389236312 a65.6383701188455,65.6383701188455 0 0,0 -0.8652564529846444,0.7218277069919303 l -28.299766607337553 -34.52111378326692" fill="red" stroke="none" /><path d="M 112.16784306229584 117.11559508785304 l 12.9425359567544 18.205297661358106 a43.33701188455008,43.33701188455008 0 0,0 -0.6100301641397226,0.4258484318996165 l -12.628110701440919 -18.424790909062846" fill="red" stroke="none" /><path d="M 111.5731344415666 117.5232005979908 l 19.78141442962169 29.95158268595455 a56.894312393887944,56.894312393887944 0 0,0 -0.8195879496194852,0.5312470069626656 l -19.264340847745196 -30.28674353462111" fill="red" stroke="none" /><line stroke="#e1ed5e" stroke-width="0.3" x1="143.1302829299769" x2="145.66735839644613" y1="173.24464959558577" y2="177.55315839532614" /><path d="M 143.63769802327073 174.10635135553383 a86.0,86.0 0 0,1 -40.68552437913181,11.842963189579606" fill="none" id="id90" stroke="none" /><text fill="#e1ed5e" style="font-size:6.75px; font-family:Arial;" text-anchor="middle"><textPath startOffset="21.407464694133747" xlink:href="#id90">June</textPath></text><path d="M 110.34350942703117 118.27599006163325 l 22.166544608268392 39.166160365528995 a66.00382003395586,66.00382003395586 0 0,0 -0.9908613271239901,0.5496140752196821 l -21.49093909298831 -39.54090735618182" fill="red" stroke="none" /><path d="M 109.71004243097381 118.62028667847754 l 20.69772202391786 39.690611077807404 a65.76315789473685,65.76315789473685 0 0,0 -1.0054647530548344,0.5133974671298023 l -20.01333004914944 -40.04006649661004" fill="red" stroke="none" /><path d="M 109.06512990194946 118.94263497670748 l 10.315625325605476 21.55568946203428 a44.89685908319185,44.89685908319185 0 0,0 -0.6980633905896533,0.3267289140828618 l -9.944073221144317 -21.729594607687673" fill="red" stroke="none" /><path d="M 108.4095320186766 119.2426549942271 l 4.829412912253577 11.050641853645695 a33.05984719864176,33.05984719864176 0 0,0 -0.5219755119664137,0.2228003074759251 l -4.639002325116732 -11.131916810781021" fill="red" stroke="none" /><path d="M 107.74402155503746 119.51999308798841 l 23.232064665112397 58.55997926396521 a84.0,84.0 0 0,0 -1.3449109500258825,0.5202404474478377 l -22.223381452592985 -58.95015959955109" fill="red" stroke="none" /><path d="M 106.72888874123015 119.89276391827305 l 12.820875025204634 37.90263889181992 a61.01230899830221,61.01230899830221 0 0,0 -0.9950156455013834,0.32708140619829307 l -12.168336642055516 -38.11714121942023" fill="red" stroke="none" /><path d="M 105.3480935250658 120.30758222061773 l 10.010650443777674 38.01207028562147 a60.3081494057725,60.3081494057725 0 0,0 -1.0033975322737527,0.25505972894845635 l -9.356647618278524 -38.1783152464052" fill="red" stroke="none" /><path d="M 104.64783097203109 120.47920084513623 l 6.08005732419346 26.789854416260553 a48.47113752122241,48.47113752122241 0 0,0 -0.8130169687712815,0.177193264290678 l -5.619277938803043 -26.890279138684953" fill="red" stroke="none" /><path d="M 101.08105385017728 120.97215588758144 l 0.7538928165709987 14.625319237392318 a35.64473684210526,35.64473684210526 0 0,0 -0.6113483800328025,0.026253929908786985 l -0.5027186759373667 -14.636105735726936" fill="red" stroke="none" /><path d="M 100.72087961077811 120.9876233191556 l 0.30842387422085554 8.979424577974894 a29.98471986417657,29.98471986417657 0 0,0 -0.5145758962079872,0.01325364975995258 l -0.1542346639421246 -8.983395945084892" fill="red" stroke="none" /><line stroke="#e1ed5e" stroke-width="0.3" x1="101.45913802915013" x2="101.54496967792366" y1="184.9874750549273" y2="189.98673829345242" /><path d="M 101.47630435890484 185.9873277026323 a86.0,86.0 0 0,1 -42.54439059252881,-10.42667462771756" fill="none" id="id91" stroke="none" /><text fill="#e1ed5e" style="font-size:6.75px; font-family:Arial;" text-anchor="middle"><textPath startOffset="22.145653131862474" xlink:href="#id91">July</textPath></text><path d="M 100.0 121.0 l 2.2966805676369553e-15 18.75382003395586 a39.75382003395586,39.75382003395586 0 0,0 -0.6824271837121735,-0.005857816615950639 l 0.32193425886331906 -18.751056615534345" fill="red" stroke="none" /><path d="M 98.19965949673042 120.92268563240118 l -2.45292572813895 28.506715144315706 a49.612054329371816,49.612054329371816 0 0,0 -0.8478946647703757,-0.08029650630651423 l 2.941919956294341 -28.46040688250401" fill="red" stroke="none" /><path d="M 97.84075906011543 120.88869738790638 l -1.8540511126428199 17.936262655235392 a39.03183361629881,39.03183361629881 0 0,0 -0.665890699019567,-0.07461444174022692 l 2.1616777132631864 -17.901792452988197" fill="red" stroke="none" /><path d="M 97.48249496171623 120.84855314841334 l -3.4108132776747855 28.24642684623743 a49.45161290322581,49.45161290322581 0 0,0 -0.8419070645797431,-0.10900172507648442 l 3.8951981641453224 -28.18371352496055" fill="red" stroke="none" /><path d="M 95.70440661134978 120.55596938700252 l -3.664746481828067 17.537138568707576 a38.915959252971135,38.915959252971135 0 0,0 -0.6527458782007004,-0.14226292605610522 l 3.9652547766479036 -17.471644184517753" fill="red" stroke="none" /><path d="M 95.00130118170881 120.39639698878247 l -2.238381686458915 9.13336113037585 a30.403650254668932,30.403650254668932 0 0,0 -0.5058511650289615,-0.1285853880347699 l 2.394838144713255 -9.093590510505816" fill="red" stroke="none" /><path d="M 94.30408787586889 120.21278271476187 l -14.815173810133901 52.57382532939759 a75.6213921901528,75.6213921901528 0 0,0 -1.2464565598278643,-0.36282533851334253 l 15.71549038234337 -52.311756296581734" fill="red" stroke="none" /><path d="M 93.27111125876986 119.89276391827306 l -7.725655367159382 22.83952733401045 a45.11078098471987,45.11078098471987 0 0,0 -0.7314266925637286,-0.2544281718040593 l 8.116587831768133 -22.7035407296378" fill="red" stroke="none" /><path d="M 92.59220618246901 119.65005319985036 l -7.033631056798312 18.657542023796804 a40.9393039049236,40.9393039049236 0 0,0 -0.6554728346210632,-0.25355097359167217 l 7.352876153912903 -18.53405116206709" fill="red" stroke="none" /><path d="M 90.93487009805054 118.94263497670748 l -15.22911042101697 31.8229835474568 a56.27928692699491,56.27928692699491 0 0,0 -0.8678795357212622,-0.4245233709194104 l 15.7731502060003 -31.556866426440166" fill="red" stroke="none" /><line stroke="#e1ed5e" stroke-width="0.3" x1="58.13341422392154" x2="55.670673884152215" y1="173.97424548756322" y2="178.32567169271397" /><path d="M 57.64086615596767 174.84453072859336 a86.0,86.0 0 0,1 -31.369924170532244,-30.572349798747897" fill="none" id="id92" stroke="none" /><text fill="#e1ed5e" style="font-size:6.75px; font-family:Arial;" text-anchor="middle"><textPath startOffset="22.145653131862474" xlink:href="#id92">August</textPath></text><path d="M 89.65649057296885 118.27599006163327 l -11.463031881994196 20.254078968983208 a44.27292020373514,44.27292020373514 0 0,0 -0.6582066265438832,-0.3800157730175107 l 11.80903097639848 -20.054316298689525" fill="red" stroke="none" /><path d="M 89.03521579738668 117.91015095944536 l -12.063124216117881 19.704206828048537 a44.10356536502547,44.10356536502547 0 0,0 -0.6423072541377344,-0.400847231421062 l 12.399595599045329 -19.494223799785928" fill="red" stroke="none" /><path d="M 88.72937992617639 117.7192867562869 l -9.285345315488804 14.598105090811915 a38.3009337860781,38.3009337860781 0 0,0 -0.5517420365838792,-0.3576325221555028 l 9.534572984329696 -14.436558726952518" fill="red" stroke="none" /><path d="M 88.1277618465304 117.32195027204791 l -5.568261103388751 8.124259359343354 a30.84932088285229,30.84932088285229 0 0,0 -0.4342481279488955,-0.3031389187175078 l 5.706904322511412 -8.027475624820717" fill="red" stroke="none" /><path d="M 87.54013794807813 116.9041958592261 l -14.501248619002453 19.673728797112904 a45.440577249575554,45.440577249575554 0 0,0 -0.6239359348611686,-0.46821315747370634 l 14.836837542774388 -19.421896612375182" fill="red" stroke="none" /><path d="M 86.68645165197938 116.24036423190432 l -14.455032544243098 17.632789348561662 a43.80050933786078,43.80050933786078 0 0,0 -0.5773859600715022,-0.4816759033349193 l 14.755592838476494 -17.38205126131487" fill="red" stroke="none" /><path d="M 86.13680546590413 115.77377054828092 l -15.22833083796269 17.327045067466482 a44.0679117147708,44.0679117147708 0 0,0 -0.5639328129818567,-0.5042721987506613 l 15.523528677767917 -17.06307733883244" fill="red" stroke="none" /><path d="M 85.86807049272751 115.53346607816431 l -7.401868001686867 8.13594955027791 a31.999151103565367,31.999151103565367 0 0,0 -0.4031439392966289,-0.37314401162341143 l 7.540441712297462 -8.00768779252212" fill="red" stroke="none" /><path d="M 85.08716467003676 114.78537596483092 l -9.019860078606804 8.942767720663866 a33.70161290322581,33.70161290322581 0 0,0 -0.4037986013789429,-0.41433293773000224 l 9.172045481136555 -8.786612090866127" fill="red" stroke="none" /><path d="M 84.3458050057657 113.99807769240083 l -13.388456245068813 11.9720401316586 a38.96052631578947,38.96052631578947 0 0,0 -0.44153210502419016,-0.5023824845869299 l 13.591999414051594 -11.74044536926037" fill="red" stroke="none" /><path d="M 83.8745106332314 113.45245675266167 l -17.48753197457291 14.588721138816041 a43.77376910016978,43.77376910016978 0 0,0 -0.4764111505598848,-0.5811441403135357 l 17.735389944371423 -14.28637471680401" fill="red" stroke="none" /><line stroke="#e1ed5e" stroke-width="0.3" x1="26.387840678322732" x2="22.057713659400548" y1="142.50000000000003" y2="145.00000000000006" /><path d="M 25.521815274538298 143.00000000000003 a86.0,86.0 0 0,1 -11.493303480769221,-40.785679425670985" fill="none" id="id93" stroke="none" /><text fill="#e1ed5e" style="font-size:6.75px; font-family:Arial;" text-anchor="middle"><textPath startOffset="21.40746469413373" xlink:href="#id93">September</textPath></text><path d="M 81.81346652052679 110.50000000000001 l -43.78353900491172 25.278438030560288 a71.55687606112053,71.55687606112053 0 0,0 -0.6050530329407363,-1.0690707341444192 l 44.21102540287383 -24.52311052631675" fill="red" stroke="none" /><path d="M 81.4637452351635 109.86951160357371 l -13.296379691245196 7.079573264023592 a36.06366723259762,36.06366723259762 0 0,0 -0.2862629681355498,-0.5489469865870888 l 13.415950728355694 -6.850280034332001" fill="red" stroke="none" /><path d="M 80.9802524753101 108.90220220490708 l -11.729920693282866 5.490195162873509 a33.95118845500849,33.95118845500849 0 0,0 -0.24253360499452098,-0.5299796972598685 l 11.822438763132443 -5.288026483398951" fill="red" stroke="none" /><path d="M 80.41425534168474 107.57618678355246 l -21.79703841006054 8.431562710727743 a44.37096774193549,44.37096774193549 0 0,0 -0.2686964583920789,-0.7127492789446294 l 21.938565552267058 -8.056145151588968" fill="red" stroke="none" /><path d="M 80.28708602549918 107.23885506374661 l -25.218473140554117 9.260572649461917 a47.86502546689304,47.86502546689304 0 0,0 -0.27661387388116504,-0.7737382360927214 l 25.373727184479225 -8.826299456988274" fill="red" stroke="none" /><path d="M 79.22317932658666 103.0534771498775 l -26.702976654964175 3.924418000776341 a47.98981324278438,47.98981324278438 0 0,0 -0.11278859204869936,-0.8160820664901268 l 26.766409763568088 -3.4654476260861284" fill="red" stroke="none" /><line stroke="#e1ed5e" stroke-width="0.3" x1="15.003131293944662" x2="10.003315487706104" y1="100.72959589197737" y2="100.7725132973878" /><path d="M 14.003168132696942 100.73817937305945 a86.0,86.0 0 0,1 10.791469493833615,-42.45332614584628" fill="none" id="id94" stroke="none" /><text fill="#e1ed5e" style="font-size:6.75px; font-family:Arial;" text-anchor="middle"><textPath startOffset="22.145653131862435" xlink:href="#id94">October</textPath></text><path d="M 79.0935383218832 98.0201363427161 l -59.0279215122381 -5.590005538307529 a80.29202037351443,80.29202037351443 0 0,0 0.1417253856218901,-1.3710645429862147 l 58.92326373413455 6.602474603576656" fill="red" stroke="none" /><path d="M 79.17382384314186 97.30363454192245 l -44.313081950055114 -5.737215637242271 a65.68293718166385,65.68293718166385 0 0,0 0.15437205327023482,-1.116959277111081 l 44.20806538022967 6.497063222553419" fill="red" stroke="none" /><path d="M 79.22317932658666 96.9465228501225 l -10.000388218867032 -1.4697126858917966 a31.10780984719864,31.10780984719864 0 0,0 0.08218166062709946,-0.5276652143714938 l 9.973685066101666 1.6411660821947405" fill="red" stroke="none" /><path d="M 79.56144815229197 95.17655741523228 l -52.059316484760565 -12.285856940233895 a74.48938879456706,74.48938879456706 0 0,0 0.30438660479766383,-1.242001219758048 l 51.84074235344661 13.17771398460006" fill="red" stroke="none" /><path d="M 79.73907114497095 94.47779374421319 l -22.462455929259715 -6.122242249624429 a44.28183361629881,44.28183361629881 0 0,0 0.20618783165257912,-0.7316878752333746 l 22.354049605532555 6.506938048760817" fill="red" stroke="none" /><path d="M 80.16572619554312 93.10060997987247 l -17.01403538149719 -5.918364698929426 a39.01400679117148,39.01400679117148 0 0,0 0.225463487146715,-0.6306615008152406 l 16.909931724306535 6.209561156125588" fill="red" stroke="none" /><path d="M 80.5471966667186 92.08871423366112 l -14.837303730860215 -6.034202258960506 a37.01740237691001,37.01740237691001 0 0,0 0.24444557200339753,-0.5865803855222543 l 14.731532314320338 6.288015153924024" fill="red" stroke="none" /><path d="M 81.46374523516351 90.13048839642627 l -37.28493689752128 -19.852128815507594 a63.24066213921901,63.24066213921901 0 0,0 0.5184368609843395,-0.953865431450583 l 36.93865468692159 20.489249080432796" fill="red" stroke="none" /><line stroke="#e1ed5e" stroke-width="0.3" x1="26.387840678322718" x2="22.05771365940052" y1="57.49999999999999" y2="54.99999999999999" /><path d="M 25.521815274538284 56.99999999999999 a86.0,86.0 0 0,1 29.574782752854787,-30.34633250058573" fill="none" id="id95" stroke="none" /><text fill="#e1ed5e" style="font-size:6.75px; font-family:Arial;" text-anchor="middle"><textPath startOffset="21.40746469413373" xlink:href="#id95">November</textPath></text><path d="M 82.576782715395 88.27688183743585 l -37.13896315928962 -24.988751872834122 a65.76315789473685,65.76315789473685 0 0,0 0.638247929446782,-0.9312228033333124 l 36.70452549302752 25.62260941123747" fill="red" stroke="none" /><path d="M 82.98947788004972 87.6856937992154 l -36.12208920463127 -26.14960692806678 a65.59380305602716,65.59380305602716 0 0,0 0.6681134286429022,-0.9064241808533253 l 35.667873756404546 26.76583741818897" fill="red" stroke="none" /><path d="M 84.83555147118756 85.47280134310135 l -32.56880711196561 -31.20018047704039 a66.1018675721562,66.1018675721562 0 0,0 0.7920048737969647,-0.8126667723368896 l 32.02841543701785 31.754669941445012" fill="red" stroke="none" /><path d="M 85.60350026404147 84.71141617570332 l -30.613948929181767 -32.510952869153805 a65.65619694397284,65.65619694397284 0 0,0 0.8271750019106199,-0.7656208327627314 l 30.051344155957192 33.0316914480489" fill="red" stroke="none" /><path d="M 85.86807049272753 84.46653392183569 l -30.051344155957192 -33.0316914480489 a65.65619694397284,65.65619694397284 0 0,0 0.8401960154579353,-0.7513084579282125 l 29.479883113675868 33.542695435860516" fill="red" stroke="none" /><path d="M 86.96720088162412 83.53348406188908 l -33.24580759823388 -42.004991845520635 a74.56960950764007,74.56960950764007 0 0,0 1.0105604427765464,-0.7858179126232372 l 32.51983721082209 42.56951080976468" fill="red" stroke="none" /><path d="M 87.83215693770416 82.88440491214696 l -7.591990365693922 -10.679085220349725 a34.10271646859083,34.10271646859083 0 0,0 0.4800443044011771,-0.33510820659150475 l 7.4075509701189794 10.807838242746357" fill="red" stroke="none" /><line stroke="#e1ed5e" stroke-width="0.3" x1="56.869717070023135" x2="54.33264160355391" y1="26.7553504044142" y2="22.446841604673864" /><path d="M 56.362301976729285 25.89364864446614 a86.0,86.0 0 0,1 42.16139366436587,-11.88097634709845" fill="none" id="id96" stroke="none" /><text fill="#e1ed5e" style="font-size:6.75px; font-family:Arial;" text-anchor="middle"><textPath startOffset="22.145653131862474" xlink:href="#id96">December</textPath></text><path d="M 91.5904679813234 80.7573450057729 l -8.173950901005691 -18.703599294049262 a41.411714770797964,41.411714770797964 0 0,0 0.6538415283353892,-0.2790860686258105 l 7.85167429749987 18.841160012334477" fill="red" stroke="none" /><path d="M 93.95794788825049 79.88797359093562 l -12.822691238857184 -42.68256877984801 a65.56706281833615,65.56706281833615 0 0,0 1.080732491052959,-0.31458547738143394 l 12.0880987354226 42.896397951531966" fill="red" stroke="none" /><path d="M 94.6519064749342 79.69241777938228 l -11.372643701434509 -43.18378052856317 a65.65619694397284,65.65619694397284 0 0,0 1.092377508532201,-0.2776780909598696 l 10.62966089967693 43.372643851358305" fill="red" stroke="none" /><path d="M 96.05791012581881 79.37332000966035 l -10.056010247805151 -52.61729488197848 a74.56960950764007,74.56960950764007 0 0,0 1.2593928773820084,-0.22950333484305238 l 9.151282636872104 52.78216639075289" fill="red" stroke="none" /><path d="M 96.41257539226777 79.30868818359171 l -8.694479843018254 -50.14744926642246 a71.89558573853989,71.89558573853989 0 0,0 1.2178512989702521,-0.20039696779878563 l 7.832351040994929 50.28931223271692" fill="red" stroke="none" /><path d="M 98.5590905019552 79.04949213459386 l -1.785847085861988 -25.965824688873475 a47.02716468590832,47.02716468590832 0 0,0 0.8058567054961865,-0.04847833828391938 l 1.3398460282333176 25.992655004982087" fill="red" stroke="none" /><path d="M 99.63950707515114 79.00309439819443 l -0.919593581639063 -53.56171590273831 a74.56960950764007,74.56960950764007 0 0,0 1.280086506487902,-0.01098800309619799 l 1.3120770163021005e-14 53.56960950764007" fill="red" stroke="none" /></svg>