<?xml version="1.0" encoding="utf-8" ?>
<svg baseProfile="full" height="200mm" version="1.1" viewBox="0,0,200,200" width="200mm" xmlns="http://www.w3.org/2000/svg" xmlns:ev="http://www.w3.org/2001/xml-events" xmlns:xlink="http://www.w3.org/1999/xlink"><defs /><rect fill="#1a1a1a" height="200" width="200" x="0" y="0" /><text alignment-baseline="middle" fill="#e1ed5e" style="dominant-baseline: central; font-size:9.0px; font-family:Arial;" text-anchor="middle" x="100.0" y="100.0">2019</text><line stroke="#e1ed5e" stroke-width="0.3" x1="100.0" x2="100.0" y1="15.0" y2="10.0" /><path d="M 100.0 14.0 a86.0,86.0 0 0,1 42.46469731375804,11.215312516191453" fill="none" id="id25" stroke="none" /><text fill="#e1ed5e" style="font-size:6.75px; font-family:Arial;" text-anchor="middle"><textPath startOffset="22.20632615414155" xlink:href="#id25">January</textPath></text><path d="M 102.16513564639614 79.11191278185805 l 3.2652410683300066 -31.501324333679868 a52.670100000000005,52.670100000000005 0 0,0 0.9009930309272581,0.10123706510038609 l -3.80700080276699 31.44045131510888" fill="red" stroke="none" /><line stroke="#e1ed5e" stroke-width="0.3" x1="143.23703022742887" x2="145.7803849466894" y1="26.81831364943548" y2="22.513508569990506" /><path d="M 143.74570117128098 25.957352633546492 a86.0,86.0 0 0,1 28.547481713284135,27.462654790039103" fill="none" id="id26" stroke="none" /><text fill="#e1ed5e" style="font-size:6.75px; font-family:Arial;" text-anchor="middle"><textPath startOffset="19.985693538727396" xlink:href="#id26">February</textPath></text><path d="M 117.04232023915458 87.72973835380427 l 20.537700120205184 -14.786892309830483 a46.3071,46.3071 0 0,0 0.46017654207045783,0.6508870841183628 l -20.789189282079526 14.431178725380326" fill="red" stroke="none" /><line stroke="#e1ed5e" stroke-width="0.3" x1="172.23445277983987" x2="176.4835382374775" y1="55.19839476539836" y2="52.563006222186495" /><path d="M 173.08426987136738 54.67131705675599 a86.0,86.0 0 0,1 12.851231095245387,41.99856678651699" fill="none" id="id27" stroke="none" /><text fill="#e1ed5e" style="font-size:6.75px; font-family:Arial;" text-anchor="middle"><textPath startOffset="22.20632615414155" xlink:href="#id27">March</textPath></text><path d="M 118.73160827565052 90.50648371742162 l 28.142368273337336 -14.263058862945773 a52.550399999999996,52.550399999999996 0 0,0 0.4019855035853915,0.8103782457402278 l -28.383713789876136 13.776521028706595" fill="red" stroke="none" /><path d="M 120.08093135843002 93.85539295169968 l 30.157542714090205 -9.227970865137415 a52.537800000000004,52.537800000000004 0 0,0 0.2571702866059432,0.8670503602375316 l -30.31191889780785 8.707491118153353" fill="red" stroke="none" /><path d="M 120.96714384426684 98.82574320788733 l 14.328946103171964 -0.8024870917297976 a35.3514,35.3514 0 0,0 0.028796899899732033,0.6078570431108422 l -14.340636611305191 0.5557189419959556" fill="red" stroke="none" /><line stroke="#e1ed5e" stroke-width="0.3" x1="184.98032266829074" x2="189.97916517819016" y1="98.17113171792111" y2="98.06355123074" /><path d="M 185.9800911702706 98.14961562048488 a86.0,86.0 0 0,1 -9.607161424134198,41.387399972396054" fill="none" id="id28" stroke="none" /><text fill="#e1ed5e" style="font-size:6.75px; font-family:Arial;" text-anchor="middle"><textPath startOffset="21.466115282336823" xlink:href="#id28">April</textPath></text><path d="M 120.92983693683757 101.71520430193887 l 18.535463591263355 1.518984929797064 a39.5976,39.5976 0 0,0 -0.06151846125994674,0.6788510937528154 l -18.506570533726332 -1.8378174120984498" fill="red" stroke="none" /><path d="M 120.70491114924044 103.5080841355445 l 39.641622886335746 6.716577885913499 a61.2066,61.2066 0 0,0 -0.18494173915820059,1.0372514891129618 l -39.520134704838355 -7.3979481257596795" fill="red" stroke="none" /><path d="M 120.49622156327973 104.57218783832717 l 31.02718020249286 6.921377949659665 a52.7898,52.7898 0 0,0 -0.2054765893637763,0.8851877691571776 l -30.903443047198532 -7.454434376165408" fill="red" stroke="none" /><path d="M 120.02730092923936 106.31721596034902 l 15.447057206722315 4.872468670217198 a37.1973,37.1973 0 0,0 -0.1978679357749217,0.6089748884693312 l -15.360897019931146 -5.137642458664325" fill="red" stroke="none" /><path d="M 119.67450827220406 107.3425965602758 l 17.890030371915156 6.676623052258779 a40.0953,40.0953 0 0,0 -0.24688341197211755,0.6445346838454785 l -17.77245268034953 -6.9835813029374005" fill="red" stroke="none" /><line stroke="#e1ed5e" stroke-width="0.3" x1="174.80103733775053" x2="179.2010983576182" y1="140.37084112569926" y2="142.7455964860345" /><path d="M 175.68104954172406 140.8457921977663 a86.0,86.0 0 0,1 -30.038265399797805,32.042727171017184" fill="none" id="id29" stroke="none" /><text fill="#e1ed5e" style="font-size:6.75px; font-family:Arial;" text-anchor="middle"><textPath startOffset="22.206326154141568" xlink:href="#id29">May</textPath></text><path d="M 118.48025628344425 109.97397251340804 l 14.032058596019223 7.573237329430733 a36.9453,36.9453 0 0,0 -0.30686342285196333,0.5570462469827416 l -13.899618763715752 -7.813654094811279" fill="red" stroke="none" /><path d="M 117.55443506779137 111.5257021239791 l 9.458329614525994 6.210048304399937 a32.3148,32.3148 0 0,0 -0.3092940213939788,0.46235259642010434 l -9.350032487721291 -6.3719378150258486" fill="red" stroke="none" /><path d="M 117.14729908036423 112.12312394758627 l 25.9112836403384 18.319252597197615 a52.7331,52.7331 0 0,0 -0.5303950633656238,0.7366723533516645 l -25.592108784597173 -18.76255855600041" fill="red" stroke="none" /><path d="M 114.29624159901734 115.38237550388516 l 6.703507685779229 7.212795873771749 a30.846899999999998,30.846899999999998 0 0,0 -0.3920500717881235,0.35812844516096826 l -6.578358064524242 -7.3271170855193" fill="red" stroke="none" /><path d="M 112.92097659922987 116.55440617244103 l 19.470619637379507 24.945834661251396 a52.6449,52.6449 0 0,0 -0.7191575905396606,0.5514193739729625 l -19.038333318346353 -25.27729337705173" fill="red" stroke="none" /><path d="M 111.1453310114006 117.79835938074945 l 12.010208697885286 19.179512068695608 a43.629599999999996,43.629599999999996 0 0,0 -0.6399440142206354,0.39310588131736157 l -11.678285483732342 -19.383406416841346" fill="red" stroke="none" /><line stroke="#e1ed5e" stroke-width="0.3" x1="143.8653032363475" x2="146.44561519142675" y1="172.8068346515853" y2="177.08958963109032" /><path d="M 144.38136562736335 173.6633856474863 a86.0,86.0 0 0,1 -40.68145358897372,12.25698825130547" fill="none" id="id30" stroke="none" /><text fill="#e1ed5e" style="font-size:6.75px; font-family:Arial;" text-anchor="middle"><textPath startOffset="21.466115282336833" xlink:href="#id30">June</textPath></text><path d="M 110.8373102113329 117.98757091392108 l 16.340496336647757 27.121659424010193 a52.663799999999995,52.663799999999995 0 0,0 -0.7805079330350233,0.46113784440173494 l -15.871220532584353 -27.398915840705676" fill="red" stroke="none" /><path d="M 109.89434966115114 118.52300852407294 l 14.954320077863834 27.995675083283825 a52.7394,52.7394 0 0,0 -0.804424267394959,0.4208367572622383 l -14.47020490794238 -28.24894125949078" fill="red" stroke="none" /><path d="M 108.2653958097858 119.30500536409082 l 4.321975468936995 10.094587304883088 a31.9809,31.9809 0 0,0 -0.5079306143313165,0.21231503798488283 l -4.147573395108218 -10.167487385887943" fill="red" stroke="none" /><path d="M 107.59598834532513 119.57807347666477 l 6.881965440864565 17.737734569858283 a40.025999999999996,40.025999999999996 0 0,0 -0.6444753592309161,0.2436854352967615 l -6.575619860873374 -17.853568255261678" fill="red" stroke="none" /><path d="M 106.2309692047433 120.05430185196036 l 4.213381376247424 13.560718912295595 a35.2002,35.2002 0 0,0 -0.5801747678432599,0.1748018983049828 l -3.979331633963918 -13.631236179706304" fill="red" stroke="none" /><path d="M 103.41894727170886 120.7198165907248 l 5.576644894884322 33.79609284113122 a55.2531,55.2531 0 0,0 -0.9397345592596307,0.14676721153903002 l -4.994074472016175 -33.887078360017355" fill="red" stroke="none" /><path d="M 100.90346689309514 120.98055641714683 l 0.8456450119370532 19.63780080644943 a40.656,40.656 0 0,0 -0.6994373991578732,0.024090038247082432 l -0.5074872611045278 -19.649447643122606" fill="red" stroke="none" /><line stroke="#e1ed5e" stroke-width="0.3" x1="102.19456741930631" x2="102.32365962044197" y1="184.97166512339345" y2="189.96999836594603" /><path d="M 102.22038585953345 185.97133177190398 a86.0,86.0 0 0,1 -42.740103519485714,-10.115201625700543" fill="none" id="id31" stroke="none" /><text fill="#e1ed5e" style="font-size:6.75px; font-family:Arial;" text-anchor="middle"><textPath startOffset="22.20632615414155" xlink:href="#id31">July</textPath></text><path d="M 98.73552117531835 120.96189622390904 l -1.033332095529843 17.13006159417846 a38.1612,38.1612 0 0,0 -0.6553499911125283,-0.0451967723450066 l 1.3280448474213014 -17.10973647731717" fill="red" stroke="none" /><path d="M 97.2962882734958 120.8252237178851 l -2.4584850729102636 18.936375926672913 a40.0953,40.0953 0 0,0 -0.6836657408469835,-0.09474984210496945 l 2.784079404944078 -18.89125151907534" fill="red" stroke="none" /><path d="M 96.93821686468263 120.77559828337769 l -2.7629531013103885 18.747899890920035 a39.9504,39.9504 0 0,0 -0.679469053071157,-0.10611909210286599 l 3.085258017990063 -18.697562491470062" fill="red" stroke="none" /><path d="M 96.22490169976321 120.6578951692458 l -2.2843119814732846 12.500092366910634 a33.7071,33.7071 0 0,0 -0.5698624818509722,-0.1092155009308738 l 2.499142077895952 -12.458919667631292" fill="red" stroke="none" /><path d="M 95.51606077576429 120.51570834832081 l -3.434249051842133 15.712981023978912 a37.0839,37.0839 0 0,0 -0.6224441681871439,-0.14166626617516298 l 3.7042133694221397 -15.651538024226063" fill="red" stroke="none" /><path d="M 94.46302465271185 120.25689768951611 l -2.9949499653481606 10.956955960259265 a32.3589,32.3589 0 0,0 -0.5360310830676004,-0.1514877383446724 l 3.183112216520375 -10.90377942857607" fill="red" stroke="none" /><path d="M 93.76903079525671 120.05430185196036 l -3.039466778073778 9.782488443386264 a31.2438,31.2438 0 0,0 -0.5122177827736989,-0.16399595873968856 l 3.2074059059384172 -9.728719637986869" fill="red" stroke="none" /><path d="M 93.42475214034765 119.94407469862007 l -5.061625802360381 15.352948702997733 a37.165800000000004,37.165800000000004 0 0,0 -0.6058561066476978,-0.20553928578770186 l 5.325151641945305 -15.263546430311907" fill="red" stroke="none" /><path d="M 93.08242187328487 119.8279376855182 l -5.240065430986707 15.019662796780029 a36.9075,36.9075 0 0,0 -0.5980428721932554,-0.21443689662227416 l 5.49782786380969 -14.927238359117796" fill="red" stroke="none" /><path d="M 92.06813273071674 119.44442032107085 l -5.9703164935895074 14.635815175670027 a36.8067,36.8067 0 0,0 -0.5845754729387979,-0.24435259509889298 l 6.221363426025768 -14.530877537551161" fill="red" stroke="none" /><path d="M 91.40352486487194 119.15986991738527 l -6.478303661832501 14.438877969741544 a36.8256,36.8256 0 0,0 -0.5761137226222532,-0.2644655534621672 l 6.725885380222174 -14.325225345945302" fill="red" stroke="none" /><path d="M 90.7491055286396 118.85261126421891 l -8.528399613147142 17.38022232448341 a40.359899999999996,40.359899999999996 0 0,0 -0.6210544748245026,-0.31140960655641226 l 8.826307995654405 -17.230844877017695" fill="red" stroke="none" /><path d="M 90.42595943632237 118.69057910512821 l -8.86364675385275 17.3037381355277 a40.4418,40.4418 0 0,0 -0.6168512599144748,-0.3227074249962644 l 9.160188916293722 -17.14860129158672" fill="red" stroke="none" /><line stroke="#e1ed5e" stroke-width="0.3" x1="58.666819895761336" x2="56.23545636021788" y1="174.27360380694188" y2="178.64263932499728" /><path d="M 58.180547188652646 175.14741091055294 a86.0,86.0 0 0,1 -31.652253787137756,-30.449443065178592" fill="none" id="id32" stroke="none" /><text fill="#e1ed5e" style="font-size:6.75px; font-family:Arial;" text-anchor="middle"><textPath startOffset="22.20632615414155" xlink:href="#id32">August</textPath></text><path d="M 89.7882731507175 118.34994917583269 l -10.247467893254981 18.414173997948104 a42.073499999999996,42.073499999999996 0 0,0 -0.6298026954733612,-0.3576184073304525 l 10.56291935564955 -18.23505242482302" fill="red" stroke="none" /><path d="M 88.54995079064634 117.60387380957326 l -8.694022364662246 13.36662138360898 a36.9453,36.9453 0 0,0 -0.5301216025067853,-0.35133569149404764 l 8.922818665908993 -13.214987671023616" fill="red" stroke="none" /><path d="M 88.24862548938628 117.40417183066458 l -17.627061765920566 26.106257745996864 a52.5,52.5 0 0,0 -0.7446077884427684,-0.5121480265872413 l 18.073826438986227 -25.79896893004452" fill="red" stroke="none" /><path d="M 86.51685102203217 116.09983520530335 l -8.64809175446857 10.326434300681564 a34.4694,34.4694 0 0,0 -0.4516058067464193,-0.3848682658880474 l 8.824563037792046 -10.176041644570565" fill="red" stroke="none" /><path d="M 86.24171649860922 115.8653595955263 l -13.868349769401904 15.992282472290505 a42.168,42.168 0 0,0 -0.5442837553635719,-0.48026713132124405 l 14.141575877672064 -15.751192199196971" fill="red" stroke="none" /><path d="M 85.97065885151581 115.62618273729859 l -21.191319804785373 23.60334902468951 a52.7205,52.7205 0 0,0 -0.6700535810634556,-0.6120780594843952 l 21.594472935315686 -23.235078198618538" fill="red" stroke="none" /><path d="M 84.19399662182784 113.82643327865904 l -23.718488669285154 20.747945777955746 a52.5126,52.5126 0 0,0 -0.5892851205673106,-0.6854717258366773 l 24.072116299423243 -20.33659695295754" fill="red" stroke="none" /><path d="M 83.72743513129214 113.27417163493432 l -9.841647232594509 8.02821900480828 a33.7008,33.7008 0 0,0 -0.3628165347343592,-0.452669412673609 l 9.97838167938373 -7.857621758556411" fill="red" stroke="none" /><path d="M 83.06392112726016 112.41649034213515 l -26.298343273590422 19.28032620326745 a53.6088,53.6088 0 0,0 -0.5392029460235492,-0.7489057320043285 l 26.62632601198958 -18.824786865811983" fill="red" stroke="none" /><path d="M 82.64656182679789 111.8261652097733 l -13.223319887979995 9.011537889847247 a37.001999999999995,37.001999999999995 0 0,0 -0.3541565282662889,-0.5294159571693394 l 13.376479521657018 -8.782585018472085" fill="red" stroke="none" /><path d="M 82.24976979558568 111.22182372390057 l -26.6945712044187 16.876500698374063 a52.581900000000005,52.581900000000005 0 0,0 -0.4770814887354053,-0.769207265894515 l 26.981117332822063 -16.414497101114282" fill="red" stroke="none" /><line stroke="#e1ed5e" stroke-width="0.3" x1="26.63291911575756" x2="22.317208475507996" y1="142.92168965132927" y2="145.44649492493687" /><path d="M 25.769776987707644 143.4266507060508 a86.0,86.0 0 0,1 -11.730757126820373,-40.83630448921669" fill="none" id="id33" stroke="none" /><text fill="#e1ed5e" style="font-size:6.75px; font-family:Arial;" text-anchor="middle"><textPath startOffset="21.46611528233685" xlink:href="#id33">September</textPath></text><path d="M 81.51974371655577 109.97397251340807 l -27.87561857794729 15.044740139224734 a52.6764,52.6764 0 0,0 -0.4237878883686958,-0.8016469761579611 l 28.130458974540872 -14.562678147980646" fill="red" stroke="none" /><path d="M 81.18737489456691 109.33194174019688 l -22.270385599811686 11.04715263204507 a45.8598,45.8598 0 0,0 -0.34470571820477675,-0.7101958779630136 l 22.457244574631183 -10.662167798116771" fill="red" stroke="none" /><path d="M 80.58989483394504 108.01547362559985 l -14.563401906091029 6.0140098612875645 a36.756299999999996,36.756299999999996 0 0,0 -0.23646095426529412,-0.5868766964647377 l 14.664765474613711 -5.762433796980021" fill="red" stroke="none" /><path d="M 80.20201598880116 107.00284435728193 l -22.920126089764892 8.107192912425289 a45.3117,45.3117 0 0,0 -0.253765304073796,-0.7375607585442242 l 23.056282224781913 -7.711459450791768" fill="red" stroke="none" /><path d="M 79.97269907076064 106.31721596034903 l -24.885924134672823 7.849772552329703 a47.0946,47.0946 0 0,0 -0.23720703997775205,-0.7752063313547776 l 25.017357947156704 -7.420239248422877" fill="red" stroke="none" /><path d="M 79.67330655649465 105.27499134158121 l -30.49613817329107 7.91406950977429 a52.506299999999996,52.506299999999996 0 0,0 -0.21949805086805932,-0.8767856031547011 l 30.62784753845419 -7.387956067222197" fill="red" stroke="none" /><path d="M 79.50377843672027 104.57218783832718 l -30.861160807830295 6.8843432281692305 a52.6197,52.6197 0 0,0 -0.1895961991681688,-0.8857303226889184 l 30.975091045722905 -6.352099086064149" fill="red" stroke="none" /><path d="M 79.35854240842038 103.8639653848113 l -30.999341011034286 5.8029032149096045 a52.537800000000004,52.537800000000004 0 0,0 -0.1587481105558177,-0.8903437094156461 l 31.09463556392929 -5.268440754760745" fill="red" stroke="none" /><path d="M 79.18660465613746 102.79330883721812 l -31.220093015793818 4.189963255827186 a52.5,52.5 0 0,0 -0.11249622688287969,-0.8967056142814784 l 31.28759075192355 -3.6519398872582984" fill="red" stroke="none" /><path d="M 79.1416061653843 102.43462659150553 l -31.28759075192355 3.6519398872582984 a52.5,52.5 0 0,0 -0.09704424624737029,-0.8985091952880447 l 31.34581729967197 -3.1128343700854715" fill="red" stroke="none" /><path d="M 79.07016306316243 101.71520430193888 l -31.394755405256355 2.572806452908321 a52.5,52.5 0 0,0 -0.06605860333916164,-0.9013171587580984 l 31.434390567259854 -2.032016157653462" fill="red" stroke="none" /><path d="M 79.0235259727143 100.99374915477108 l -31.464711040928556 1.4906237321566183 a52.5,52.5 0 0,0 -0.03499466787199784,-0.903056882465008 l 31.485707841651756 -0.9487896026776134" fill="red" stroke="none" /><line stroke="#e1ed5e" stroke-width="0.3" x1="15.007084014347285" x2="10.007500721073583" y1="101.09737516637583" y2="101.16192664675087" /><path d="M 14.007167355692545 101.11028546245083 a86.0,86.0 0 0,1 10.666146001902534,-42.60595125391555" fill="none" id="id34" stroke="none" /><text fill="#e1ed5e" style="font-size:6.75px; font-family:Arial;" text-anchor="middle"><textPath startOffset="22.20632615414155" xlink:href="#id34">October</textPath></text><path d="M 79.00486145842228 99.54816195383935 l -31.49270781236656 -0.6777570692409723 a52.5,52.5 0 0,0 0.027220763860887343,-0.903324631437514 l 31.47637535405003 1.2197518481034808" fill="red" stroke="none" /><path d="M 79.03285615573316 98.82574320788736 l -31.59538905892572 -1.7694875600345443 a52.6449,52.6449 0 0,0 0.0584594264110366,-0.9043414518241247 l 31.560249041510268 2.313088076111681" fill="red" stroke="none" /><path d="M 79.08570108090925 98.10471618934814 l -31.49065988247496 -2.8537288336984976 a52.6197,52.6197 0 0,0 0.08951080617803961,-0.901361602713909 l 31.436871950614695 3.395365967116837" fill="red" stroke="none" /><path d="M 79.21141760316559 97.0276538004421 l -15.79100718863542 -2.257794173184183 a36.9516,36.9516 0 0,0 0.09544792990420381,-0.6288826018348748 l 15.749803365291914 2.52927588741115" fill="red" stroke="none" /><path d="M 79.26566170972629 96.67025291283419 l -18.673345064220506 -2.998770226701529 a39.9126,39.9126 0 0,0 0.11477369599466411,-0.6774008507269373 l 18.618959506705618 3.3197568657442944" fill="red" stroke="none" /><path d="M 79.71946130924805 94.55025226153421 l -30.62158536916637 -8.228574110309491 a52.707899999999995,52.707899999999995 0 0,0 0.24299152455549108,-0.8741697995487959 l 30.47540707404452 8.75445521327723" fill="red" stroke="none" /><path d="M 80.02781315780177 93.51064311812611 l -15.18285643743909 -4.933209101600532 a36.9642,36.9642 0 0,0 0.20182929550292622,-0.6034439042361285 l 15.095689848164392 5.193826108758983" fill="red" stroke="none" /><path d="M 80.38941819471856 92.48833698450439 l -29.727680958626127 -11.386929965189806 a52.8339,52.8339 0 0,0 0.33261820785265334,-0.8464770585827488 l 29.527269200891784 11.896956028668319" fill="red" stroke="none" /><path d="M 80.803312248108 91.48605970444005 l -29.031150887186282 -12.8756319089753 a52.7583,52.7583 0 0,0 0.37533179909297165,-0.8269938671860652 l 28.80521677112996 13.373447785003437" fill="red" stroke="none" /><path d="M 81.10775173730289 90.83032412892265 l -28.47439658153709 -13.820535472887768 a52.6512,52.6512 0 0,0 0.4027565755232035,-0.8119326797154037 l 28.232279993060473 14.308627741102134" fill="red" stroke="none" /><path d="M 81.6062741919709 89.86733742301443 l -27.700951066891843 -15.259789840940272 a52.626000000000005,52.626000000000005 0 0,0 0.44391875092117467,-0.7896819241034299 l 27.43417467467824 15.734355274978485" fill="red" stroke="none" /><line stroke="#e1ed5e" stroke-width="0.3" x1="26.266209847984257" x2="21.92892807433627" y1="57.711370442889674" y2="55.22380399835377" /><path d="M 25.39875349325466 57.213857153982495 a86.0,86.0 0 0,1 29.58750427330802,-30.492523968695096" fill="none" id="id35" stroke="none" /><text fill="#e1ed5e" style="font-size:6.75px; font-family:Arial;" text-anchor="middle"><textPath startOffset="21.46611528233685" xlink:href="#id35">November</textPath></text><path d="M 82.15384107792192 88.93136811851018 l -53.53847676623425 -33.20589564446946 a84.0,84.0 0 0,0 0.7726896150161493,-1.222209409143138 l 52.95895955497213 34.12255270132681" fill="red" stroke="none" /><path d="M 82.7489923806493 88.02491185347247 l -25.876511429026056 -17.96263221979128 a52.5,52.5 0 0,0 0.5217184504903044,-0.7379337491705346 l 25.563480358731876 18.405392469293602" fill="red" stroke="none" /><path d="M 83.84228863543731 86.58626213691792 l -24.236567046844034 -20.120606794623118 a52.5,52.5 0 0,0 0.5832234662821895,-0.6903526259272103 l 23.88663296707472 20.534818370179444" fill="red" stroke="none" /><path d="M 84.31358615837235 86.03803664274997 l -23.793152514980832 -21.177506020276834 a52.8528,52.8528 0 0,0 0.610717525297538,-0.6743695449999756 l 23.425091349067248 21.583928352546366" fill="red" stroke="none" /><path d="M 85.05521093208273 85.24692304244772 l -22.417183601875916 -22.129615436328432 a52.5,52.5 0 0,0 0.640410499581717,-0.6376603733747208 l 22.032937302126886 22.512211660353266" fill="red" stroke="none" /><path d="M 85.83668400450813 84.49514656593479 l -21.24497399323781 -23.257280151097827 a52.5,52.5 0 0,0 0.6724725310100715,-0.6037524780768031 l 20.841490474631765 23.61953163794391" fill="red" stroke="none" /><path d="M 86.37877921826538 84.01681056812374 l -40.863662345203856 -47.94956829562878 a84.0,84.0 0 0,0 1.1085698521635585,-0.9283953704247505 l 40.03223495608118 48.64586482344734" fill="red" stroke="none" /><path d="M 88.09926311788651 82.69761687909137 l -17.85110532317023 -25.953574681362937 a52.5,52.5 0 0,0 0.7489882639836511,-0.5057202192533363 l 17.40171236478004 26.25700681291494" fill="red" stroke="none" /><line stroke="#e1ed5e" stroke-width="0.3" x1="56.762969772571076" x2="54.21961505331055" y1="26.818313649435495" y2="22.513508569990535" /><path d="M 56.25429882871897 25.957352633546506 a86.0,86.0 0 0,1 42.265352541879196,-11.944610805530505" fill="none" id="id36" stroke="none" /><text fill="#e1ed5e" style="font-size:6.75px; font-family:Arial;" text-anchor="middle"><textPath startOffset="22.20632615414155" xlink:href="#id36">December</textPath></text><path d="M 89.63071344664047 81.73862282372117 l -15.553929830039289 -27.392065764418245 a52.5,52.5 0 0,0 0.789689777319889,-0.43946150609953855 l 15.080115963647355 27.655742668077966" fill="red" stroke="none" /><path d="M 91.23893434514133 80.91482961587045 l -13.14159848228801 -28.62775557619433 a52.5,52.5 0 0,0 0.824544703833064,-0.3699491737086777 l 12.646871659988172 28.849725080419535" fill="red" stroke="none" /><path d="M 91.90106846888425 80.62456947434976 l -12.279599987477708 -29.377027762990885 a52.840199999999996,52.840199999999996 0 0,0 0.8422127273417169,-0.3435597181848836 l 11.772103390547612 29.584048367359348" fill="red" stroke="none" /><path d="M 94.28887869178378 79.79150937346287 l -8.671195482264697 -30.682551318271305 a52.884299999999996,52.884299999999996 0 0,0 0.8781365255678996,-0.24002788423713886 l 8.141761067473075 30.82726574333474" fill="red" stroke="none" /><path d="M 96.40284397218896 79.31037775812273 l -2.8403143995595928 -16.3365257221863 a37.5816,37.5816 0 0,0 0.6382980526938502,-0.10532464784324352 l 2.5586871407268568 16.382996632969167" fill="red" stroke="none" /><path d="M 97.83486435360386 79.11191278185805 l -3.2600447427786747 -31.451192924356324 a52.6197,52.6197 0 0,0 0.9017384690499949,-0.08563093310831212 l 2.7181811466384436 31.502649401979816" fill="red" stroke="none" /><path d="M 99.27714615592234 79.0124445844662 l -1.0927381560922014 -31.726887521662444 a52.7457,52.7457 0 0,0 0.9076614803810223,-0.023442218176035284 l 0.5464500405163001 31.74099653198084" fill="red" stroke="none" /></svg>