<?xml version="1.0" encoding="utf-8" ?>
<svg baseProfile="full" height="200mm" version="1.1" viewBox="0,0,200,200" width="200mm" xmlns="http://www.w3.org/2000/svg" xmlns:ev="http://www.w3.org/2001/xml-events" xmlns:xlink="http://www.w3.org/1999/xlink"><defs /><rect fill="#1a1a1a" height="200" width="200" x="0" y="0" /><text alignment-baseline="middle" fill="#e1ed5e" style="dominant-baseline: central; font-size:9.0px; font-family:Arial;" text-anchor="middle" x="100.0" y="100.0">2022</text><line stroke="#e1ed5e" stroke-width="0.3" x1="100.0" x2="100.0" y1="15.0" y2="10.0" /><path d="M 100.0 14.0 a86.0,86.0 0 0,1 42.46469731375804,11.215312516191453" fill="none" id="id61" stroke="none" /><text fill="#e1ed5e" style="font-size:6.75px; font-family:Arial;" text-anchor="middle"><textPath startOffset="22.20632615414155" xlink:href="#id61">January</textPath></text><line stroke="#e1ed5e" stroke-width="0.3" x1="143.23703022742887" x2="145.7803849466894" y1="26.81831364943548" y2="22.513508569990506" /><path d="M 143.74570117128098 25.957352633546492 a86.0,86.0 0 0,1 28.547481713284135,27.462654790039103" fill="none" id="id62" stroke="none" /><text fill="#e1ed5e" style="font-size:6.75px; font-family:Arial;" text-anchor="middle"><textPath startOffset="19.985693538727396" xlink:href="#id62">February</textPath></text><line stroke="#e1ed5e" stroke-width="0.3" x1="172.23445277983987" x2="176.4835382374775" y1="55.19839476539836" y2="52.563006222186495" /><path d="M 173.08426987136738 54.67131705675599 a86.0,86.0 0 0,1 12.851231095245387,41.99856678651699" fill="none" id="id63" stroke="none" /><text fill="#e1ed5e" style="font-size:6.75px; font-family:Arial;" text-anchor="middle"><textPath startOffset="22.20632615414155" xlink:href="#id63">March</textPath></text><line stroke="#e1ed5e" stroke-width="0.3" x1="184.98032266829074" x2="189.97916517819016" y1="98.17113171792111" y2="98.06355123074" /><path d="M 185.9800911702706 98.14961562048488 a86.0,86.0 0 0,1 -9.607161424134198,41.387399972396054" fill="none" id="id64" stroke="none" /><text fill="#e1ed5e" style="font-size:6.75px; font-family:Arial;" text-anchor="middle"><textPath startOffset="21.466115282336823" xlink:href="#id64">April</textPath></text><line stroke="#e1ed5e" stroke-width="0.3" x1="174.80103733775053" x2="179.2010983576182" y1="140.37084112569926" y2="142.7455964860345" /><path d="M 175.68104954172406 140.8457921977663 a86.0,86.0 0 0,1 -30.038265399797805,32.042727171017184" fill="none" id="id65" stroke="none" /><text fill="#e1ed5e" style="font-size:6.75px; font-family:Arial;" text-anchor="middle"><textPath startOffset="22.206326154141568" xlink:href="#id65">May</textPath></text><path d="M 118.12598468904814 110.60418214915192 l 14.77732244017751 8.64512585222875 a38.12038140643624,38.12038140643624 0 0,0 -0.33622017438808105,0.5635243516227216 l -14.626321390091201 -8.898212297737576" fill="red" stroke="none" /><path d="M 115.32070863581623 114.36230785411682 l 22.981062953724354 21.543461781175235 a52.5,52.5 0 0,0 -0.6237336215525888,0.6539822085437321 l -22.606822780792804 -21.935851106301474" fill="red" stroke="none" /><path d="M 113.48314897796784 116.09983520530334 l 9.513735631653109 11.360074423765882 a35.8176400476758,35.8176400476758 0 0,0 -0.47608444106382236,0.391785083331797 l -9.316781062044596 -11.522154625954858" fill="red" stroke="none" /><path d="M 112.92097659922987 116.55440617244103 l 10.664810840246355 13.663797704905145 a38.333134684147794,38.333134684147794 0 0,0 -0.5236511946510302,0.40151340642596023 l -10.42803091710183 -13.845350453158476" fill="red" stroke="none" /><path d="M 112.34349029814194 116.9893568818739 l 18.39018220819717 25.311914305533218 a52.287246722288444,52.287246722288444 0 0,0 -0.7327003720186891,0.5227622610338808 l -17.951754508329596 -25.62472082841132" fill="red" stroke="none" /><line stroke="#e1ed5e" stroke-width="0.3" x1="143.8653032363475" x2="146.44561519142675" y1="172.8068346515853" y2="177.08958963109032" /><path d="M 144.38136562736335 173.6633856474863 a86.0,86.0 0 0,1 -40.68145358897372,12.25698825130547" fill="none" id="id66" stroke="none" /><text fill="#e1ed5e" style="font-size:6.75px; font-family:Arial;" text-anchor="middle"><textPath startOffset="21.466115282336833" xlink:href="#id66">June</textPath></text><path d="M 109.2508944713604 118.85261126421891 l 5.639848059714949 11.493576473954674 a33.80274135876043,33.80274135876043 0 0,0 -0.5245659616992678,0.2518235394366438 l -5.4411694300154485 -11.588954289890877" fill="red" stroke="none" /><path d="M 108.59647513512805 119.15986991738527 l 5.153786642395002 11.4867873283013 a33.589988081048865,33.589988081048865 0 0,0 -0.5295690758156071,0.2321475202369988 l -4.955296891921642 -11.573799401832753" fill="red" stroke="none" /><path d="M 107.2578585660854 119.70592522655815 l 6.500930527310108 17.650778078377172 a39.80989272943981,39.80989272943981 0 0,0 -0.6450727518693764,0.23130013823116022 l -6.196138214810997 -17.76006575764829" fill="red" stroke="none" /><path d="M 106.57524785965236 119.94407469862006 l 7.927131358806161 24.044614490648627 a46.31764004767581,46.31764004767581 0 0,0 -0.7593416578178962,0.24311721961407987 l -7.512068355897324 -24.17750455692241" fill="red" stroke="none" /><path d="M 104.83641907484287 120.43548508189849 l 7.234452847351365 30.567978281028143 a52.41239570917759,52.41239570917759 0 0,0 -0.8797292099777673,0.20022350403853256 l -6.7072034879807365 -30.68797851864436" fill="red" stroke="none" /><path d="M 104.13013068566511 120.58985236759428 l 3.2366637971690184 16.135670955534245 a37.457091775923715,37.457091775923715 0 0,0 -0.6332609830672757,0.12136597457868585 l -2.9584351995300384 -16.1889941284614" fill="red" stroke="none" /><path d="M 102.70371172650421 120.8252237178851 l 4.058790130550714 31.262657059208898 a52.525029797377826,52.525029797377826 0 0,0 -0.8976091808422865,0.10868797135858294 l -3.5200535266570476 -31.327890559292833" fill="red" stroke="none" /><line stroke="#e1ed5e" stroke-width="0.3" x1="102.19456741930631" x2="102.32365962044197" y1="184.97166512339345" y2="189.96999836594603" /><path d="M 102.22038585953345 185.97133177190398 a86.0,86.0 0 0,1 -42.740103519485714,-10.115201625700543" fill="none" id="id67" stroke="none" /><text fill="#e1ed5e" style="font-size:6.75px; font-family:Arial;" text-anchor="middle"><textPath startOffset="22.20632615414155" xlink:href="#id67">July</textPath></text><path d="M 100.18074693466247 120.99922214144158 l 0.2712281176877718 31.51134764728838 a52.51251489868892,52.51251489868892 0 0,0 -0.9039501047004328,0.0 l 0.27122811768775007 -31.51134764728838" fill="red" stroke="none" /><path d="M 98.73552117531835 120.96189622390904 l -1.898225363154393 31.467828717536854 a52.525029797377826,52.525029797377826 0 0,0 -0.9020229398157511,-0.062208783113916075 l 2.439611063749074 -31.430491589906655" fill="red" stroke="none" /><path d="M 96.22490169976321 120.6578951692458 l -5.637900083667111 30.85142151020858 a52.362336114421936,52.362336114421936 0 0,0 -0.8852535760619953,-0.1696609547735455 l 6.168121274300801 -30.749803357086567" fill="red" stroke="none" /><path d="M 94.46302465271185 120.25689768951611 l -8.312062514790734 30.4094906316395 a52.525029797377826,52.525029797377826 0 0,0 -0.8700867028992463,-0.24589519330049212 l 8.834280385794594 -30.261906645000487" fill="red" stroke="none" /><path d="M 92.40401165467489 119.57807347666478 l -5.246573594893808 13.522638354859644 a35.50476758045292,35.50476758045292 0 0,0 -0.5678715776336404,-0.2259678202741294 l 5.478566248569306 -13.430323690179447" fill="red" stroke="none" /><path d="M 91.7346041902142 119.30500536409082 l -8.708712629142601 20.340434734036094 a43.12634088200238,43.12634088200238 0 0,0 -0.6799161830330254,-0.2980552737469116 l 9.05754948683337 -20.187514906994732" fill="red" stroke="none" /><path d="M 91.07499286063937 119.00905698771935 l -13.430061398620735 28.604212690102113 a52.60011918951132,52.60011918951132 0 0,0 -0.8162720240732911,-0.3918601763243976 l 13.920446090694268 -28.368798237278153" fill="red" stroke="none" /><path d="M 90.10565033884886 118.52300852407294 l -14.812041924202417 27.729319077753996 a52.43742550655543,52.43742550655543 0 0,0 -0.7924972695294376,-0.4321326991219197 l 15.287162005600495 -27.47024572687231" fill="red" stroke="none" /><line stroke="#e1ed5e" stroke-width="0.3" x1="58.666819895761336" x2="56.23545636021788" y1="174.27360380694188" y2="178.64263932499728" /><path d="M 58.180547188652646 175.14741091055294 a86.0,86.0 0 0,1 -31.652253787137756,-30.449443065178592" fill="none" id="id68" stroke="none" /><text fill="#e1ed5e" style="font-size:6.75px; font-family:Arial;" text-anchor="middle"><textPath startOffset="22.20632615414155" xlink:href="#id68">August</textPath></text><path d="M 89.4739219176387 118.17145234162733 l -15.70756824686094 27.11639848834018 a52.337306317044096,52.337306317044096 0 0,0 -0.7756691080806353,-0.4582789813274967 l 16.172005225969958 -26.842000934718936" fill="red" stroke="none" /><path d="M 88.24862548938628 117.40417183066458 l -17.50800731617061 25.929934193481195 a52.287246722288444,52.287246722288444 0 0,0 -0.7415903075360875,-0.5100725757047663 l 17.95175450832959 -25.624720828411327" fill="red" stroke="none" /><path d="M 87.36589467227662 116.77436683061367 l -18.996333576785496 25.221530103479306 a52.57508939213349,52.57508939213349 0 0,0 -0.7182039401661873,-0.5506881555323195 l 19.42766624544517 -24.89080260611962" fill="red" stroke="none" /><path d="M 86.79598089348748 116.32954008644616 l -19.868979883160975 24.572162525790556 a52.60011918951132,52.60011918951132 0 0,0 -0.6991554527572544,-0.575357339358325 l 20.28900546446292 -24.226510067575052" fill="red" stroke="none" /><path d="M 85.70375840098266 115.38237550388516 l -13.009750251310768 13.998145050317428 a40.11025029797378,40.11025029797378 0 0,0 -0.5016916869948982,-0.47438080406990424 l 13.248777772696481 -13.772129609501594" fill="red" stroke="none" /><path d="M 85.18274418774928 114.88116024355367 l -26.499752498548524 26.61404165131379 a58.55721096543504,58.55721096543504 0 0,0 -0.7081501283463408,-0.7173523412779982 l 26.9539432519504 -26.15394881605513" fill="red" stroke="none" /><path d="M 83.28015986056508 112.70617746262583 l -30.101690739709714 22.87566276197417 a58.80750893921335,58.80750893921335 0 0,0 -0.605545773420617,-0.8112275203729277 l 30.490997779825417 -22.354122362091935" fill="red" stroke="none" /><path d="M 82.64656182679789 111.8261652097733 l -31.066584190881468 21.171513879713334 a58.594755661501786,58.594755661501786 0 0,0 -0.5608268536751784,-0.8383600522576494 l 31.42641414996738 -20.63361691324986" fill="red" stroke="none" /><path d="M 82.24976979558568 111.22182372390057 l -31.903870260139207 20.169857181933313 a58.74493444576877,58.74493444576877 0 0,0 -0.5329993929669934,-0.8593647321641537 l 32.24633429277416 -19.6176961184039" fill="red" stroke="none" /><line stroke="#e1ed5e" stroke-width="0.3" x1="26.63291911575756" x2="22.317208475507996" y1="142.92168965132927" y2="145.44649492493687" /><path d="M 25.769776987707644 143.4266507060508 a86.0,86.0 0 0,1 -11.730757126820373,-40.83630448921669" fill="none" id="id69" stroke="none" /><text fill="#e1ed5e" style="font-size:6.75px; font-family:Arial;" text-anchor="middle"><textPath startOffset="21.46611528233685" xlink:href="#id69">September</textPath></text><path d="M 81.35079622478065 109.6543875284942 l -33.46409568962186 17.32381456990228 a58.6823599523242,58.6823599523242 0 0,0 -0.4566642534995205,-0.9010418959035189 l 33.757338612907645 -16.745218462296076" fill="red" stroke="none" /><path d="M 80.87730276802145 108.67885076344099 l -29.242455957840846 13.271711000589743 a53.11323003575686,53.11323003575686 0 0,0 -0.3706770181170728,-0.8357788199791412 l 29.4665740606892 -12.766383844117907" fill="red" stroke="none" /><path d="M 80.73074385275274 108.34839909993369 l -29.38618979785801 12.731557387801137 a53.025625744934445,53.025625744934445 0 0,0 -0.35564796942085636,-0.8406467429990971 l 29.60098874847117 -12.223836119135882" fill="red" stroke="none" /><path d="M 80.45479744820244 107.68017299344265 l -29.41098715333066 11.55687533280256 a52.60011918951132,52.60011918951132 0 0,0 -0.32388077644128216,-0.845550505721238 l 29.605562209365452 -11.048901260248163" fill="red" stroke="none" /><path d="M 80.0844068197444 106.66101706037122 l -35.6890278265963 11.936637842989436 a58.63230035756853,58.63230035756853 0 0,0 -0.3118896328896734,-0.9598975885601854 l 35.88920971050223 -11.320541354451446" fill="red" stroke="none" /><path d="M 79.86692584326677 105.97154293290107 l -24.068502239813373 7.138805198688651 a46.10488676996424,46.10488676996424 0 0,0 -0.21912415119880368,-0.7627999167110061 l 24.187819027898282 -6.7234478064730485" fill="red" stroke="none" /><path d="M 79.50377843672027 104.57218783832718 l -36.912742290960274 8.234297763661935 a58.82002383790226,58.82002383790226 0 0,0 -0.21193684028315163,-0.9900983603957272 l 37.04901316996787 -7.597685583850045" fill="red" stroke="none" /><path d="M 79.10278846688536 102.07522291339032 l -62.69163459934394 6.225668740170943 a84.0,84.0 0 0,0 -0.13050161489169865,-1.4400744458057353 l 62.78951081051271 -5.145612905816642" fill="red" stroke="none" /><line stroke="#e1ed5e" stroke-width="0.3" x1="15.007084014347285" x2="10.007500721073583" y1="101.09737516637583" y2="101.16192664675087" /><path d="M 14.007167355692545 101.11028546245083 a86.0,86.0 0 0,1 10.666146001902534,-42.60595125391555" fill="none" id="id70" stroke="none" /><text fill="#e1ed5e" style="font-size:6.75px; font-family:Arial;" text-anchor="middle"><textPath startOffset="22.20632615414155" xlink:href="#id70">October</textPath></text><path d="M 79.01574976396665 99.18683210126434 l -62.89022314482225 -2.4370806690951152 a83.93742550655543,83.93742550655543 0 0,0 0.06837459450412606,-1.4432796232893195 l 62.83895494208463 3.519271399007444" fill="red" stroke="none" /><path d="M 79.16333360222342 97.38593545837743 l -31.081153750676275 -3.8992869771640493 a52.32479141835519,52.32479141835519 0 0,0 0.11980882475518274,-0.89271490573758 l 31.009428926863258 4.433720224966289" fill="red" stroke="none" /><path d="M 79.26566170972629 96.67025291283419 l -62.067092510157856 -9.967413360449267 a83.86233611442194,83.86233611442194 0 0,0 0.24115668411977684,-1.4233204007721316 l 61.88632396451786 11.034319549537226" fill="red" stroke="none" /><path d="M 79.81627453868168 94.20196356495316 l -60.2264084534093 -17.3008155126815 a83.66209773539929,83.66209773539929 0 0,0 0.409522394403003,-1.380705929439443 l 59.91968016189459 18.33495082886748" fill="red" stroke="none" /><line stroke="#e1ed5e" stroke-width="0.3" x1="26.266209847984257" x2="21.92892807433627" y1="57.711370442889674" y2="55.22380399835377" /><path d="M 25.39875349325466 57.213857153982495 a86.0,86.0 0 0,1 29.58750427330802,-30.492523968695096" fill="none" id="id71" stroke="none" /><text fill="#e1ed5e" style="font-size:6.75px; font-family:Arial;" text-anchor="middle"><textPath startOffset="21.46611528233685" xlink:href="#id71">November</textPath></text><path d="M 82.34701348167596 88.62581576622439 l -31.644924581119625 -20.389479246243752 a58.64481525625745,58.64481525625745 0 0,0 0.5540632697930785,-0.8438763719908537 l 31.289264675968624 20.931173682212275" fill="red" stroke="none" /><path d="M 83.6137871275137 86.86637796730984 l -29.48151171754239 -23.629561928898443 a58.782479141835516,58.782479141835516 0 0,0 0.639613577304639,-0.784090617014802 l 29.070399648161356 24.13353671552133" fill="red" stroke="none" /><path d="M 84.5562425177563 85.77008943001954 l -46.128791716928156 -42.50316554037073 a83.72467222884387,83.72467222884387 0 0,0 0.9856892824896604,-1.0514646013622435 l 45.39033511246804 43.29089955861103" fill="red" stroke="none" /><path d="M 86.93701828274178 83.55741782278169 l -15.569704073013382 -19.597833345909784 a46.02979737783075,46.02979737783075 0 0,0 0.6246187497757046,-0.48752484173837324 l 15.23005276807825 19.86293657687138" fill="red" stroke="none" /><line stroke="#e1ed5e" stroke-width="0.3" x1="56.762969772571076" x2="54.21961505331055" y1="26.818313649435495" y2="22.513508569990535" /><path d="M 56.25429882871897 25.957352633546506 a86.0,86.0 0 0,1 42.265352541879196,-11.944610805530505" fill="none" id="id72" stroke="none" /><text fill="#e1ed5e" style="font-size:6.75px; font-family:Arial;" text-anchor="middle"><textPath startOffset="22.20632615414155" xlink:href="#id72">December</textPath></text><path d="M 90.58718382345135 81.22770947309562 l -8.49285082913864 -16.937573216765934 a39.947556615017874,39.947556615017874 0 0,0 0.6173395206810013,-0.3029258217220686 l 8.200040041447211 17.08125419862283" fill="red" stroke="none" /></svg>