<?xml version="1.0" encoding="utf-8" ?>
<svg baseProfile="full" height="200mm" version="1.1" viewBox="0,0,200,200" width="200mm" xmlns="http://www.w3.org/2000/svg" xmlns:ev="http://www.w3.org/2001/xml-events" xmlns:xlink="http://www.w3.org/1999/xlink"><defs /><rect fill="#1a1a1a" height="200" width="200" x="0" y="0" /><text alignment-baseline="middle" fill="#e1ed5e" style="dominant-baseline: central; font-size:9.0px; font-family:Arial;" text-anchor="middle" x="100.0" y="100.0">2017</text><line stroke="#e1ed5e" stroke-width="0.3" x1="100.0" x2="100.0" y1="15.0" y2="10.0" /><path d="M 100.0 14.0 a86.0,86.0 0 0,1 42.46469731375804,11.215312516191453" fill="none" id="id1" stroke="none" /><text fill="#e1ed5e" style="font-size:6.75px; font-family:Arial;" text-anchor="middle"><textPath startOffset="22.20632615414155" xlink:href="#id1">January</textPath></text><line stroke="#e1ed5e" stroke-width="0.3" x1="143.23703022742887" x2="145.7803849466894" y1="26.81831364943548" y2="22.513508569990506" /><path d="M 143.74570117128098 25.957352633546492 a86.0,86.0 0 0,1 28.547481713284135,27.462654790039103" fill="none" id="id2" stroke="none" /><text fill="#e1ed5e" style="font-size:6.75px; font-family:Arial;" text-anchor="middle"><textPath startOffset="19.985693538727396" xlink:href="#id2">February</textPath></text><path d="M 115.4437574822437 85.77008943001954 l 10.468731472959705 -9.645911159420383 a35.23509538950715,35.23509538950715 0 0,0 0.4071438080840244,0.4495783619004764 l -10.633218921659765 9.464280010250357" fill="red" stroke="none" /><path d="M 115.68641384162765 86.03803664274999 l 5.1482735412257705 -4.582309714725437 a27.892189984101748,27.892189984101748 0 0,0 0.31612229327851094,0.36138242848123975 l -5.226387698082127 4.49301173004125" fill="red" stroke="none" /><path d="M 115.92442197804982 86.31012108654704 l 5.92418878038737 -5.092896129965013 a28.812400635930047,28.812400635930047 0 0,0 0.3200774889675927,0.37887078930060575 l -6.010976882842082 4.9901663910353005" fill="red" stroke="none" /><path d="M 116.15771136456269 86.58626213691792 l 6.198819910430899 -5.1461090907551545 a29.056538155802862,29.056538155802862 0 0,0 0.31616489445906265,0.3875807768488867 l -6.28648329696637 5.038644144298167" fill="red" stroke="none" /><path d="M 117.04232023915458 87.72973835380427 l 11.344048418332324 -8.167575791719518 a34.97843799682035,34.97843799682035 0 0,0 0.3475980280432741,0.49165275983089735 l -11.48295906617948 7.971096531556827" fill="red" stroke="none" /><path d="M 117.65298651832404 88.62581576622439 l 10.035049271793705 -6.4657897457701 a32.93769872813991,32.93769872813991 0 0,0 0.30298354464006255,0.47924720596494985 l -10.144860412679723 6.292094892090944" fill="red" stroke="none" /><line stroke="#e1ed5e" stroke-width="0.3" x1="172.23445277983987" x2="176.4835382374775" y1="55.19839476539836" y2="52.563006222186495" /><path d="M 173.08426987136738 54.67131705675599 a86.0,86.0 0 0,1 12.851231095245387,41.99856678651699" fill="none" id="id3" stroke="none" /><text fill="#e1ed5e" style="font-size:6.75px; font-family:Arial;" text-anchor="middle"><textPath startOffset="22.20632615414155" xlink:href="#id3">March</textPath></text><path d="M 117.84615892207809 88.93136811851018 l 10.107621806025945 -6.268998581527422 a32.89387917329094,32.89387917329094 0 0,0 0.29429715379729393,0.48374714061641183 l -10.214034758109463 6.094083667703928" fill="red" stroke="none" /><path d="M 119.34039704204932 91.81776055985345 l 16.742203798721555 -7.083035572591089 a39.17885532591415,39.17885532591415 0 0,0 0.2574205889333026,0.6233643745199504 l -16.861646074541056 6.793796627617835" fill="red" stroke="none" /><path d="M 120.28053869075195 94.5502522615342 l 10.452618659472414 -2.8088077821365354 a31.823430047694753,31.823430047694753 0 0,0 0.13760400860949704,0.5302443773802149 l -10.499418999952216 2.6284669792074697" fill="red" stroke="none" /><path d="M 120.87857604477298 97.74499172005257 l 11.806436433903327 -1.275164161484581 a32.87509936406995,32.87509936406995 0 0,0 0.05592347822699595,0.5631417938942396 l -11.826637037812553 1.0717468368859064" fill="red" stroke="none" /><path d="M 120.94382443527127 98.46500227214037 l 8.222282426843876 -0.6026208289719208 a29.24433624801272,29.24433624801272 0 0,0 0.032474316084371686,0.5023632963527137 l -8.231437333932663 0.4609984683661718" fill="red" stroke="none" /><line stroke="#e1ed5e" stroke-width="0.3" x1="184.98032266829074" x2="189.97916517819016" y1="98.17113171792111" y2="98.06355123074" /><path d="M 185.9800911702706 98.14961562048488 a86.0,86.0 0 0,1 -9.607161424134198,41.387399972396054" fill="none" id="id4" stroke="none" /><text fill="#e1ed5e" style="font-size:6.75px; font-family:Arial;" text-anchor="middle"><textPath startOffset="21.466115282336823" xlink:href="#id4">April</textPath></text><path d="M 120.89721153311464 102.0752229133903 l 31.053040389281552 3.0837598042281336 a52.20578298887122,52.20578298887122 0 0,0 -0.09650039733159607,0.8934738297659383 l -30.995357690448902 -3.617829955878863" fill="red" stroke="none" /><path d="M 120.49622156327973 104.57218783832717 l 16.25808194948948 3.6267662473535154 a37.65769077901431,37.65769077901431 0 0,0 -0.14657706345899374,0.6314501531031845 l -16.193244320099932 -3.9060850578052646" fill="red" stroke="none" /><path d="M 120.23288151984713 105.62410040840565 l 12.394248268070102 3.4452085669535846 a33.8641693163752,33.8641693163752 0 0,0 -0.16094730683381286,0.5602786893915082 l -12.33310832435019 -3.658044731849675" fill="red" stroke="none" /><path d="M 119.9155931802556 106.66101706037122 l 59.746779540766816 19.98305118111367 a84.0,84.0 0 0,0 -0.47043667622707686,1.3673091876427985 l -59.393952033596506 -21.00853307184577" fill="red" stroke="none" /><line stroke="#e1ed5e" stroke-width="0.3" x1="174.80103733775053" x2="179.2010983576182" y1="140.37084112569926" y2="142.7455964860345" /><path d="M 175.68104954172406 140.8457921977663 a86.0,86.0 0 0,1 -30.038265399797805,32.042727171017184" fill="none" id="id5" stroke="none" /><text fill="#e1ed5e" style="font-size:6.75px; font-family:Arial;" text-anchor="middle"><textPath startOffset="22.206326154141568" xlink:href="#id5">May</textPath></text><path d="M 116.93607887273984 112.41649034213515 l 7.204228304272582 5.281696656864124 a29.932929252782195,29.932929252782195 0 0,0 -0.30822184312985934,0.41291352776618406 l -7.11224519444763 -5.404923064139623" fill="red" stroke="none" /><path d="M 116.27256486870786 113.27417163493432 l 7.775711889270278 6.34295423215413 a31.034678060413356,31.034678060413356 0 0,0 -0.3412395860078825,0.41104506388581996 l -7.665376303368853 -6.47586055315372" fill="red" stroke="none" /><path d="M 115.32070863581623 114.36230785411682 l 18.656129206272652 17.4890781749008 a46.57184022257552,46.57184022257552 0 0,0 -0.5533032869408676,0.5801362842801097 l -18.352319367952823 -17.807621575763417" fill="red" stroke="none" /><path d="M 114.55890576462653 115.13401014063108 l 43.442362888685885 45.15841857344508 a83.66196343402225,83.66196343402225 0 0,0 -1.0464285627916294,0.9894635208971606 l -42.65859849150345 -45.89951673108816" fill="red" stroke="none" /><line stroke="#e1ed5e" stroke-width="0.3" x1="143.8653032363475" x2="146.44561519142675" y1="172.8068346515853" y2="177.08958963109032" /><path d="M 144.38136562736335 173.6633856474863 a86.0,86.0 0 0,1 -40.68145358897372,12.25698825130547" fill="none" id="id6" stroke="none" /><text fill="#e1ed5e" style="font-size:6.75px; font-family:Arial;" text-anchor="middle"><textPath startOffset="21.466115282336833" xlink:href="#id6">June</textPath></text><path d="M 110.8373102113329 117.98757091392108 l 16.104130982758708 26.72934449698824 a52.20578298887122,52.20578298887122 0 0,0 -0.7737198563931744,0.45712732907220593 l -15.641643255337152 -27.002590398354197" fill="red" stroke="none" /><path d="M 109.89434966115114 118.52300852407294 l 5.648155683954022 10.573796102026922 a32.987778219395864,32.987778219395864 0 0,0 -0.5031564509100388,0.26322767447366574 l -5.465308330517488 -10.669453195445305" fill="red" stroke="none" /><path d="M 108.59647513512805 119.15986991738527 l 7.105929714738694 15.837734284849768 a38.35880365659777,38.35880365659777 0 0,0 -0.604752706455337,0.2651058144662204 l -6.832256333625604 -15.957704652610444" fill="red" stroke="none" /><path d="M 106.91757812671514 119.82793768551818 l 20.701182476379152 59.336049212515015 a83.84350158982511,83.84350158982511 0 0,0 -1.3667699186058506,0.4636825639354648 l -19.676742824836076 -59.6835947633486" fill="red" stroke="none" /><path d="M 101.62511606390274 120.93702456842531 l 0.9519136721687808 12.263887105610818 a33.30077503974563,33.30077503974563 0 0,0 -0.5718809321074176,0.03944025733948779 l -0.7406699792824328 -12.278455707466591" fill="red" stroke="none" /><line stroke="#e1ed5e" stroke-width="0.3" x1="102.19456741930631" x2="102.32365962044197" y1="184.97166512339345" y2="189.96999836594603" /><path d="M 102.22038585953345 185.97133177190398 a86.0,86.0 0 0,1 -42.740103519485714,-10.115201625700543" fill="none" id="id7" stroke="none" /><text fill="#e1ed5e" style="font-size:6.75px; font-family:Arial;" text-anchor="middle"><textPath startOffset="22.20632615414155" xlink:href="#id7">July</textPath></text><path d="M 100.18074693466247 120.99922214144158 l 0.2349674231109896 27.298571470238493 a48.299582670906204,48.299582670906204 0 0,0 -0.8314287155468713,0.0 l 0.2349674231109708 -27.298571470238493" fill="red" stroke="none" /><path d="M 99.45781275523022 120.99299961872073 l -0.9151025973429538 35.431944706239115 a56.443759936407,56.443759936407 0 0,0 -0.9710467495231425,-0.03344481345132782 l 1.5248696985407393 -35.41094309436169" fill="red" stroke="none" /><path d="M 97.2962882734958 120.8252237178851 l -0.9800417704975457 7.54872974193609 a28.6120826709062,28.6120826709062 0 0,0 -0.4878651786214401,-0.06761366831929666 l 1.1098355403058169 -7.530741508124189" fill="red" stroke="none" /><line stroke="#e1ed5e" stroke-width="0.3" x1="58.666819895761336" x2="56.23545636021788" y1="174.27360380694188" y2="178.64263932499728" /><path d="M 58.180547188652646 175.14741091055294 a86.0,86.0 0 0,1 -31.652253787137756,-30.449443065178592" fill="none" id="id8" stroke="none" /><text fill="#e1ed5e" style="font-size:6.75px; font-family:Arial;" text-anchor="middle"><textPath startOffset="22.20632615414155" xlink:href="#id8">August</textPath></text><line stroke="#e1ed5e" stroke-width="0.3" x1="26.63291911575756" x2="22.317208475507996" y1="142.92168965132927" y2="145.44649492493687" /><path d="M 25.769776987707644 143.4266507060508 a86.0,86.0 0 0,1 -11.730757126820373,-40.83630448921669" fill="none" id="id9" stroke="none" /><text fill="#e1ed5e" style="font-size:6.75px; font-family:Arial;" text-anchor="middle"><textPath startOffset="21.46611528233685" xlink:href="#id9">September</textPath></text><path d="M 80.32549172779595 107.34259656027581 l -8.580228220061963 3.2021717312252123 a30.158286963434023,30.158286963434023 0 0,0 -0.1773246080774568,-0.4879211635404003 l 8.634077089144643 -3.0540027706786947" fill="red" stroke="none" /><path d="M 79.67330655649465 105.27499134158121 l -10.585473006499555 2.7470418940011054 a31.936108903020667,31.936108903020667 0 0,0 -0.13350614414885667,-0.533290681441069 l 10.631190464943472 -2.5644233731626445" fill="red" stroke="none" /><path d="M 79.4281124754447 104.21870165774334 l -30.827169689767324 6.321764676115593 a52.46870031796502,52.46870031796502 0 0,0 -0.17382147608573797,-0.8863119617325392 l 30.93142109882873 -5.790188987315099" fill="red" stroke="none" /><path d="M 79.04373962182676 101.35467743843564 l -21.12076202462352 1.365311333272328 a42.164844992050874,42.164844992050874 0 0,0 -0.040585970550044544,-0.7246897682839638 l 21.141134346061097 -1.0015498486529264" fill="red" stroke="none" /><line stroke="#e1ed5e" stroke-width="0.3" x1="15.007084014347285" x2="10.007500721073583" y1="101.09737516637583" y2="101.16192664675087" /><path d="M 14.007167355692545 101.11028546245083 a86.0,86.0 0 0,1 10.666146001902534,-42.60595125391555" fill="none" id="id10" stroke="none" /><text fill="#e1ed5e" style="font-size:6.75px; font-family:Arial;" text-anchor="middle"><textPath startOffset="22.20632615414155" xlink:href="#id10">October</textPath></text><path d="M 79.16333360222342 97.38593545837743 l -13.646111707844337 -1.7119733101981625 a34.75308028616852,34.75308028616852 0 0,0 0.0795746259630144,-0.5929233915851647 l 13.61462108282349 1.9466150438479866" fill="red" stroke="none" /><path d="M 79.32604984820605 96.31383870115002 l -8.387493886106382 -1.495488531717456 a29.519773449920507,29.519773449920507 0 0,0 0.09349935054125473,-0.49947726929024083 l 8.360508811655267 1.6396438784702696" fill="red" stroke="none" /><path d="M 79.71946130924805 94.55025226153421 l -60.623979130820935 -16.290760230922576 a83.77464228934818,83.77464228934818 0 0,0 0.3862139840323677,-1.3894171890238767 l 60.334578376222204 17.331888723365395" fill="red" stroke="none" /><line stroke="#e1ed5e" stroke-width="0.3" x1="26.266209847984257" x2="21.92892807433627" y1="57.711370442889674" y2="55.22380399835377" /><path d="M 25.39875349325466 57.213857153982495 a86.0,86.0 0 0,1 29.58750427330802,-30.492523968695096" fill="none" id="id11" stroke="none" /><text fill="#e1ed5e" style="font-size:6.75px; font-family:Arial;" text-anchor="middle"><textPath startOffset="21.46611528233685" xlink:href="#id11">November</textPath></text><path d="M 82.54541684631803 88.32363383020206 l -18.361652608111182 -12.283156661332544 a43.091315580286164,43.091315580286164 0 0,0 0.4177303616330328,-0.6129677604772101 l 18.147497780809406 12.59740244508017" fill="red" stroke="none" /><path d="M 83.84228863543731 86.58626213691792 l -12.792591827586994 -10.620097703998212 a37.62639109697933,37.62639109697933 0 0,0 0.41799227122418287,-0.49477100758026454 l 12.607888942875688 10.838727661207592" fill="red" stroke="none" /><path d="M 85.83668400450813 84.49514656593479 l -9.959637052871223 -10.903005539833023 a35.76718998410175,35.76718998410175 0 0,0 0.4581419576328949,-0.4113243730808617 l 9.770484107642355 11.072828921683163" fill="red" stroke="none" /><path d="M 88.70189139769569 82.29822771554957 l -4.597153689033799 -7.202777971465072 a29.54481319554849,29.54481319554849 0 0,0 0.4310459480883766,-0.26992093314871135 l 4.472488588573181 7.280843245936714" fill="red" stroke="none" /><line stroke="#e1ed5e" stroke-width="0.3" x1="56.762969772571076" x2="54.21961505331055" y1="26.818313649435495" y2="22.513508569990535" /><path d="M 56.25429882871897 25.957352633546506 a86.0,86.0 0 0,1 42.265352541879196,-11.944610805530505" fill="none" id="id12" stroke="none" /><text fill="#e1ed5e" style="font-size:6.75px; font-family:Arial;" text-anchor="middle"><textPath startOffset="22.20632615414155" xlink:href="#id12">December</textPath></text><path d="M 93.59665428221793 80.00007090966166 l -5.774082113361721 -18.03451475504973 a39.936307631160574,39.936307631160574 0 0,0 0.6565046454381323,-0.20397918903848863 l 5.46279209521286 18.131234078970742" fill="red" stroke="none" /><path d="M 96.40284397218896 79.31037775812273 l -4.942157829545227 -28.42561672679223 a49.852046899841014,49.852046899841014 0 0,0 0.8467032925413237,-0.13971329810307742 l 4.452125330865018 28.506476287834936" fill="red" stroke="none" /><path d="M 99.27714615592234 79.0124445844662 l -0.45357929504674444 -13.169357357819553 a34.17716613672496,34.17716613672496 0 0,0 0.5881294060158065,-0.015189647406626733 l 0.22682325383605886 13.17521379736854" fill="red" stroke="none" /></svg>