<?xml version="1.0" encoding="utf-8" ?>
<svg baseProfile="full" height="200mm" version="1.1" viewBox="0,0,200,200" width="200mm" xmlns="http://www.w3.org/2000/svg" xmlns:ev="http://www.w3.org/2001/xml-events" xmlns:xlink="http://www.w3.org/1999/xlink"><defs /><rect fill="#1a1a1a" height="200" width="200" x="0" y="0" /><text alignment-baseline="middle" fill="#e1ed5e" style="dominant-baseline: central; font-size:9.0px; font-family:Arial;" text-anchor="middle" x="100.0" y="100.0">2018</text><line stroke="#e1ed5e" stroke-width="0.3" x1="100.0" x2="100.0" y1="15.0" y2="10.0" /><path d="M 100.0 14.0 a86.0,86.0 0 0,1 42.46469731375804,11.215312516191453" fill="none" id="id13" stroke="none" /><text fill="#e1ed5e" style="font-size:6.75px; font-family:Arial;" text-anchor="middle"><textPath startOffset="22.20632615414155" xlink:href="#id13">January</textPath></text><path d="M 103.95276090670814 79.375362276772 l 5.938603384973524 -30.98632735138476 a52.55026929982047,52.55026929982047 0 0,0 0.8869324110192791,0.1779102978235508 l -6.471102205459928 30.879513097484" fill="red" stroke="none" /><path d="M 105.01212808612495 79.60689891045804 l 2.2481089171458115 -9.146995371999818 a30.419210053859963,30.419210053859963 0 0,0 0.5074085188138222,0.12934972936759745 l -2.4052263246446586 9.106942646463354" fill="red" stroke="none" /><line stroke="#e1ed5e" stroke-width="0.3" x1="143.23703022742887" x2="145.7803849466894" y1="26.81831364943548" y2="22.513508569990506" /><path d="M 143.74570117128098 25.957352633546492 a86.0,86.0 0 0,1 28.547481713284135,27.462654790039103" fill="none" id="id14" stroke="none" /><text fill="#e1ed5e" style="font-size:6.75px; font-family:Arial;" text-anchor="middle"><textPath startOffset="19.985693538727396" xlink:href="#id14">February</textPath></text><line stroke="#e1ed5e" stroke-width="0.3" x1="172.23445277983987" x2="176.4835382374775" y1="55.19839476539836" y2="52.563006222186495" /><path d="M 173.08426987136738 54.67131705675599 a86.0,86.0 0 0,1 12.851231095245387,41.99856678651699" fill="none" id="id15" stroke="none" /><text fill="#e1ed5e" style="font-size:6.75px; font-family:Arial;" text-anchor="middle"><textPath startOffset="22.20632615414155" xlink:href="#id15">March</textPath></text><path d="M 119.04729006885535 91.15688171328212 l 18.14678982023802 -8.425041479625895 a41.007181328545784,41.007181328545784 0 0,0 0.29173227992136375,0.6427934082276178 l -18.28912441712273 8.111426062556214" fill="red" stroke="none" /><path d="M 119.97218684219823 93.5106431181261 l 18.14349468968097 -5.895178783174491 a40.077199281867145,40.077199281867145 0 0,0 0.20753217370627797,0.6579337039294729 l -18.242282347155456 5.581994912818599" fill="red" stroke="none" /><path d="M 120.78858239683441 97.02765380044208 l 25.75868333491661 -3.682969961810089 a47.020646319569124,47.020646319569124 0 0,0 0.1076638477110149,0.802220720026965 l -25.818263181685463 3.23903089971846" fill="red" stroke="none" /><line stroke="#e1ed5e" stroke-width="0.3" x1="184.98032266829074" x2="189.97916517819016" y1="98.17113171792111" y2="98.06355123074" /><path d="M 185.9800911702706 98.14961562048488 a86.0,86.0 0 0,1 -9.607161424134198,41.387399972396054" fill="none" id="id16" stroke="none" /><text fill="#e1ed5e" style="font-size:6.75px; font-family:Arial;" text-anchor="middle"><textPath startOffset="21.466115282336823" xlink:href="#id16">April</textPath></text><path d="M 120.92983693683757 101.71520430193887 l 12.681902991351315 1.0392844737959945 a33.72441651705566,33.72441651705566 0 0,0 -0.05239393829471475,0.5781627431657158 l -12.662134456779526 -1.2574286055102808" fill="red" stroke="none" /><path d="M 120.32669344350535 105.2749913415812 l 7.225646861425598 1.8751315720522057 a28.464991023339316,28.464991023339316 0 0,0 -0.12715978880064308,0.4732088787297326 l -7.192298996283177 -1.9992313839574865" fill="red" stroke="none" /><path d="M 119.12269723197855 108.67885076344098 l 10.076322509130524 4.57314667696576 a32.06552962298025,32.06552962298025 0 0,0 -0.2324375015758051,0.5006496997834013 l -9.996110390714888 -4.745916444027992" fill="red" stroke="none" /><line stroke="#e1ed5e" stroke-width="0.3" x1="174.80103733775053" x2="179.2010983576182" y1="140.37084112569926" y2="142.7455964860345" /><path d="M 175.68104954172406 140.8457921977663 a86.0,86.0 0 0,1 -30.038265399797805,32.042727171017184" fill="none" id="id17" stroke="none" /><text fill="#e1ed5e" style="font-size:6.75px; font-family:Arial;" text-anchor="middle"><textPath startOffset="22.206326154141568" xlink:href="#id17">May</textPath></text><path d="M 118.12598468904814 110.60418214915192 l 12.241276912980744 7.16147190623456 a35.18222621184919,35.18222621184919 0 0,0 -0.31030576809264687,0.5200903160777088 l -12.11619026918987 -7.371124316198373" fill="red" stroke="none" /><path d="M 117.14729908036423 112.12312394758627 l 14.468995633341455 10.229565988088954 a38.71992818671454,38.71992818671454 0 0,0 -0.389449108133314,0.5409107490155983 l -14.29076673283254 -10.477110342555683" fill="red" stroke="none" /><path d="M 113.48314897796784 116.09983520530334 l 16.23868181816892 19.390136655100516 a46.29174147217235,46.29174147217235 0 0,0 -0.6153051355509457,0.506354236798075 l -15.902506554073286 -19.66678601075577" fill="red" stroke="none" /><path d="M 113.20401910651253 116.32954008644616 l 7.340834081358554 9.078481592045772 a32.675044883303414,32.675044883303414 0 0,0 -0.440401268063966,0.3498814025054892 l -7.183475320577236 -9.203496908556389" fill="red" stroke="none" /><path d="M 112.34349029814194 116.9893568818739 l 7.468144040347995 10.279018436609519 a33.70556552962298,33.70556552962298 0 0,0 -0.47231556356031806,0.3369846138442872 l -7.290101148938792 -10.406047312298027" fill="red" stroke="none" /><line stroke="#e1ed5e" stroke-width="0.3" x1="143.8653032363475" x2="146.44561519142675" y1="172.8068346515853" y2="177.08958963109032" /><path d="M 144.38136562736335 173.6633856474863 a86.0,86.0 0 0,1 -40.68145358897372,12.25698825130547" fill="none" id="id18" stroke="none" /><text fill="#e1ed5e" style="font-size:6.75px; font-family:Arial;" text-anchor="middle"><textPath startOffset="21.466115282336833" xlink:href="#id18">June</textPath></text><path d="M 109.2508944713604 118.85261126421891 l 27.752683414081186 56.55783379265672 a84.0,84.0 0 0,0 -1.303549327999069,0.6257828940017598 l -26.775021418081884 -57.02717096315804" fill="red" stroke="none" /><path d="M 106.91757812671514 119.82793768551818 l 8.341663629761225 23.909811152794227 a46.32315978456015,46.32315978456015 0 0,0 -0.7551342695352373,0.2561825435628477 l -7.92885962728876 -24.049856683255197" fill="red" stroke="none" /><path d="M 103.41894727170886 120.7198165907248 l 2.0941307795296344 12.69104265745472 a33.86265709156194,33.86265709156194 0 0,0 -0.5759298417156498,0.08994839668056465 l -1.8753650742054677 -12.72520936148239" fill="red" stroke="none" /><path d="M 101.98527174616119 120.90594882070398 l 3.001075063317276 31.60288852250045 a52.745062836624776,52.745062836624776 0 0,0 -0.9045920996042786,0.07805201267890464 l -2.4566386459714558 -31.649864787458018" fill="red" stroke="none" /><path d="M 100.90346689309514 120.98055641714683 l 1.3589850603199523 31.55872444913139 a52.58797127468581,52.58797127468581 0 0,0 -0.9047125603934275,0.03116012985398597 l -0.8155521482518724 -31.577441377411468" fill="red" stroke="none" /><line stroke="#e1ed5e" stroke-width="0.3" x1="102.19456741930631" x2="102.32365962044197" y1="184.97166512339345" y2="189.96999836594603" /><path d="M 102.22038585953345 185.97133177190398 a86.0,86.0 0 0,1 -42.740103519485714,-10.115201625700543" fill="none" id="id19" stroke="none" /><text fill="#e1ed5e" style="font-size:6.75px; font-family:Arial;" text-anchor="middle"><textPath startOffset="22.20632615414155" xlink:href="#id19">July</textPath></text><path d="M 95.16358092515715 120.4354850818985 l -3.2127020784413904 13.574738743810492 a34.94973070017953,34.94973070017953 0 0,0 -0.5842375314955903,-0.14359137081309556 l 3.445892894680191 -13.517426114683365" fill="red" stroke="none" /><path d="M 92.40401165467489 119.57807347666478 l -6.88684760213498 17.750317963582972 a40.039497307001795,40.039497307001795 0 0,0 -0.6404011081571754,-0.2548288173083614 l 7.191369786334013 -17.629142301868544" fill="red" stroke="none" /><line stroke="#e1ed5e" stroke-width="0.3" x1="58.666819895761336" x2="56.23545636021788" y1="174.27360380694188" y2="178.64263932499728" /><path d="M 58.180547188652646 175.14741091055294 a86.0,86.0 0 0,1 -31.652253787137756,-30.449443065178592" fill="none" id="id20" stroke="none" /><text fill="#e1ed5e" style="font-size:6.75px; font-family:Arial;" text-anchor="middle"><textPath startOffset="22.20632615414155" xlink:href="#id20">August</textPath></text><path d="M 86.79598089348748 116.32954008644616 l -4.982126898058736 6.161445257034295 a28.923698384201078,28.923698384201078 0 0,0 -0.3844508672378209,-0.31637689045493633 l 5.0874478938412455 -6.074773247722177" fill="red" stroke="none" /><path d="M 84.19399662182784 113.82643327865904 l -7.638149448159202 6.68153493268532 a31.148114901256733,31.148114901256733 0 0,0 -0.34953745663005675,-0.4065910291610695 l 7.752029414360037 -6.54906680436272" fill="red" stroke="none" /><path d="M 82.44556493220864 111.52570212397912 l -15.773778727880751 10.356577940846584 a39.86983842010772,39.86983842010772 0 0,0 -0.3717295457428621,-0.5769325100234621 l 15.949713137000659 -10.083523830901674" fill="red" stroke="none" /><line stroke="#e1ed5e" stroke-width="0.3" x1="26.63291911575756" x2="22.317208475507996" y1="142.92168965132927" y2="145.44649492493687" /><path d="M 25.769776987707644 143.4266507060508 a86.0,86.0 0 0,1 -11.730757126820373,-40.83630448921669" fill="none" id="id21" stroke="none" /><text fill="#e1ed5e" style="font-size:6.75px; font-family:Arial;" text-anchor="middle"><textPath startOffset="21.46611528233685" xlink:href="#id21">September</textPath></text><path d="M 81.18737489456691 109.33194174019688 l -28.230195961623853 14.003497255262525 a52.512567324955114,52.512567324955114 0 0,0 -0.3947113209068802,-0.8132222306996184 l 28.467060539145454 -13.515486068597623" fill="red" stroke="none" /><path d="M 80.20201598880116 107.00284435728193 l -29.637736088578023 10.483312483387637 a52.437163375224415,52.437163375224415 0 0,0 -0.2936710101073485,-0.8535454197246611 l 29.8137979296286 -9.971594360573679" fill="red" stroke="none" /><path d="M 79.07016306316243 101.71520430193888 l -9.688347618578016 0.7939620152900804 a30.720825852782767,30.720825852782767 0 0,0 -0.03865475903353217,-0.5274134756634762 l 9.700578936275884 -0.6270754031298436" fill="red" stroke="none" /><line stroke="#e1ed5e" stroke-width="0.3" x1="15.007084014347285" x2="10.007500721073583" y1="101.09737516637583" y2="101.16192664675087" /><path d="M 14.007167355692545 101.11028546245083 a86.0,86.0 0 0,1 10.666146001902534,-42.60595125391555" fill="none" id="id22" stroke="none" /><text fill="#e1ed5e" style="font-size:6.75px; font-family:Arial;" text-anchor="middle"><textPath startOffset="22.20632615414155" xlink:href="#id22">October</textPath></text><path d="M 79.71946130924805 94.55025226153421 l -21.73695080498908 -5.841112028481285 a43.508078994614,43.508078994614 0 0,0 0.20057893494868884,-0.7215891487514188 l 21.63318509947403 6.214412480651646" fill="red" stroke="none" /><path d="M 80.14247586403 93.16781622104843 l -13.238349423979999 -4.554789185967713 a35.0,35.0 0 0,0 0.20091153198365075,-0.5680039559556482 l 13.15798481118654 4.7819907683499725" fill="red" stroke="none" /><path d="M 80.52162464483688 92.15188598940014 l -17.193658676759796 -6.927569219410405 a39.53680430879713,39.53680430879713 0 0,0 0.25977245544944083,-0.629059605837153 l 17.071864534424154 7.222503395700869" fill="red" stroke="none" /><path d="M 81.6062741919709 89.86733742301443 l -24.546982975406888 -13.522344432482237 a49.02513464991023,49.02513464991023 0 0,0 0.4135441898972095,-0.7356489693263945 l 24.31058114421725 13.942876911743415" fill="red" stroke="none" /><line stroke="#e1ed5e" stroke-width="0.3" x1="26.266209847984257" x2="21.92892807433627" y1="57.711370442889674" y2="55.22380399835377" /><path d="M 25.39875349325466 57.213857153982495 a86.0,86.0 0 0,1 29.58750427330802,-30.492523968695096" fill="none" id="id23" stroke="none" /><text fill="#e1ed5e" style="font-size:6.75px; font-family:Arial;" text-anchor="middle"><textPath startOffset="21.46611528233685" xlink:href="#id23">November</textPath></text><path d="M 82.15384107792192 88.93136811851018 l -53.42633752704704 -33.13634409763783 a83.86804308797127,83.86804308797127 0 0,0 0.7714757848309803,-1.22028942129215 l 52.8480341459701 34.0510811666442" fill="red" stroke="none" /><path d="M 84.07557802195018 86.31012108654704 l -23.867573216053717 -20.518433117141203 a52.47486535008977,52.47486535008977 0 0,0 0.5947354719513551,-0.6798854548621309 l 23.51084588052452 20.926234128206275" fill="red" stroke="none" /><path d="M 87.80319425747017 82.90503203632743 l -36.51377661699908 -51.17748488226931 a83.86804308797127,83.86804308797127 0 0,0 1.1824150448763966,-0.8283573021034285 l 35.62743043253903 51.79842702713668" fill="red" stroke="none" /><line stroke="#e1ed5e" stroke-width="0.3" x1="56.762969772571076" x2="54.21961505331055" y1="26.818313649435495" y2="22.513508569990535" /><path d="M 56.25429882871897 25.957352633546506 a86.0,86.0 0 0,1 42.265352541879196,-11.944610805530505" fill="none" id="id24" stroke="none" /><text fill="#e1ed5e" style="font-size:6.75px; font-family:Arial;" text-anchor="middle"><textPath startOffset="22.20632615414155" xlink:href="#id24">December</textPath></text><path d="M 89.3179101791058 81.91981866633112 l -15.987975249584922 -27.06076212777131 a52.43087971274686,52.43087971274686 0 0,0 0.7809785949459482,-0.45239321087296414 l 15.519799922173654 27.331959496034322" fill="red" stroke="none" /><path d="M 90.91171255644093 81.06846463323043 l -3.755513153666987 -7.822995314634579 a29.67773788150808,29.67773788150808 0 0,0 0.4624382130556401,-0.21712094164908563 l 3.6202967293117383 7.886481238923673" fill="red" stroke="none" /><path d="M 93.59665428221793 80.00007090966166 l -6.5662075927107075 -20.50860472549058 a42.534111310592465,42.534111310592465 0 0,0 0.6992093991984074,-0.2172477639078955 l 6.212212820801572 20.618592624281" fill="red" stroke="none" /><path d="M 97.11714578562143 79.19881850522333 l -2.052157443449017 -14.807304241793451 a35.94883303411131,35.94883303411131 0 0,0 0.6136727223837659,-0.07967233189047694 l 1.7969699925573932 14.840434896848064" fill="red" stroke="none" /></svg>