<?xml version="1.0" encoding="utf-8" ?>
<svg baseProfile="full" height="200mm" version="1.1" viewBox="0,0,200,200" width="200mm" xmlns="http://www.w3.org/2000/svg" xmlns:ev="http://www.w3.org/2001/xml-events" xmlns:xlink="http://www.w3.org/1999/xlink"><defs /><rect fill="#1a1a1a" height="200" width="200" x="0" y="0" /><text alignment-baseline="middle" fill="#e1ed5e" style="dominant-baseline: central; font-size:9.0px; font-family:Arial;" text-anchor="middle" x="100.0" y="100.0">2023</text><line stroke="#e1ed5e" stroke-width="0.3" x1="100.0" x2="100.0" y1="15.0" y2="10.0" /><path d="M 100.0 14.0 a86.0,86.0 0 0,1 42.46469731375804,11.215312516191453" fill="none" id="id73" stroke="none" /><text fill="#e1ed5e" style="font-size:6.75px; font-family:Arial;" text-anchor="middle"><textPath startOffset="22.20632615414155" xlink:href="#id73">January</textPath></text><line stroke="#e1ed5e" stroke-width="0.3" x1="143.23703022742887" x2="145.7803849466894" y1="26.81831364943548" y2="22.513508569990506" /><path d="M 143.74570117128098 25.957352633546492 a86.0,86.0 0 0,1 28.547481713284135,27.462654790039103" fill="none" id="id74" stroke="none" /><text fill="#e1ed5e" style="font-size:6.75px; font-family:Arial;" text-anchor="middle"><textPath startOffset="19.985693538727396" xlink:href="#id74">February</textPath></text><path d="M 111.60114157652 82.49532879139004 l 10.380211267632879 -15.662440124304313 a39.78991262907069,39.78991262907069 0 0,0 0.5676605254115921,0.38328692073989074 l -10.648276487451012 15.481441291265751" fill="red" stroke="none" /><path d="M 112.48926042617603 83.11751280151076 l 7.499508246377347 -10.137537984160343 a33.610007942811755,33.610007942811755 0 0,0 0.4621437650332473,0.3480771025780124 l -7.672898165168976 10.006944292076483" fill="red" stroke="none" /><line stroke="#e1ed5e" stroke-width="0.3" x1="172.23445277983987" x2="176.4835382374775" y1="55.19839476539836" y2="52.563006222186495" /><path d="M 173.08426987136738 54.67131705675599 a86.0,86.0 0 0,1 12.851231095245387,41.99856678651699" fill="none" id="id75" stroke="none" /><text fill="#e1ed5e" style="font-size:6.75px; font-family:Arial;" text-anchor="middle"><textPath startOffset="22.20632615414155" xlink:href="#id75">March</textPath></text><path d="M 119.7369772167798 92.82701384747503 l 19.51750328426597 -7.09322300229832 a41.766481334392374,41.766481334392374 0 0,0 0.23975336429883787,0.6778150464080677 l -19.636709729374616 6.756210329463638" fill="red" stroke="none" /><line stroke="#e1ed5e" stroke-width="0.3" x1="184.98032266829074" x2="189.97916517819016" y1="98.17113171792111" y2="98.06355123074" /><path d="M 185.9800911702706 98.14961562048488 a86.0,86.0 0 0,1 -9.607161424134198,41.387399972396054" fill="none" id="id76" stroke="none" /><text fill="#e1ed5e" style="font-size:6.75px; font-family:Arial;" text-anchor="middle"><textPath startOffset="21.466115282336823" xlink:href="#id76">April</textPath></text><path d="M 120.9764740272857 100.99374915477107 l 31.527190610112296 1.493583668082245 a52.56254964257347,52.56254964257347 0 0,0 -0.05059433023484773,0.9033957536918168 l -31.49680992898992 -2.036051138109485" fill="red" stroke="none" /><line stroke="#e1ed5e" stroke-width="0.3" x1="174.80103733775053" x2="179.2010983576182" y1="140.37084112569926" y2="142.7455964860345" /><path d="M 175.68104954172406 140.8457921977663 a86.0,86.0 0 0,1 -30.038265399797805,32.042727171017184" fill="none" id="id77" stroke="none" /><text fill="#e1ed5e" style="font-size:6.75px; font-family:Arial;" text-anchor="middle"><textPath startOffset="22.206326154141568" xlink:href="#id77">May</textPath></text><path d="M 116.0416608686014 113.55231037782055 l 23.97648557544931 20.255806237858476 a52.38741064336775,52.38741064336775 0 0,0 -0.5878802724905294,0.6838375701417243 l -23.624262793388002 -20.66552090716173" fill="red" stroke="none" /><path d="M 113.48314897796784 116.09983520530334 l 28.49774378901701 34.028325243298006 a65.38522637013503,65.38522637013503 0 0,0 -0.8690938015129553,0.7152050310403978 l -27.907779858959366 -34.51382539319558" fill="red" stroke="none" /><path d="M 111.7513745106137 117.40417183066458 l 17.5500571275468 25.9922113459945 a52.362390786338366,52.362390786338366 0 0,0 -0.751338722780435,0.497946336210547 l -17.1000437060264 -26.290455703296367" fill="red" stroke="none" /><line stroke="#e1ed5e" stroke-width="0.3" x1="143.8653032363475" x2="146.44561519142675" y1="172.8068346515853" y2="177.08958963109032" /><path d="M 144.38136562736335 173.6633856474863 a86.0,86.0 0 0,1 -40.68145358897372,12.25698825130547" fill="none" id="id78" stroke="none" /><text fill="#e1ed5e" style="font-size:6.75px; font-family:Arial;" text-anchor="middle"><textPath startOffset="21.466115282336833" xlink:href="#id78">June</textPath></text><path d="M 109.89434966115114 118.52300852407294 l 14.83563031996669 27.773478428370662 a52.487490071485304,52.487490071485304 0 0,0 -0.8005819320689038,0.41882662901962864 l -14.35535748537129 -28.02473447633501" fill="red" stroke="none" /><path d="M 109.2508944713604 118.85261126421891 l 8.233222601397397 16.77867428241246 a39.68983320095314,39.68983320095314 0 0,0 -0.6159244690178286,0.2956811747968998 l -7.9431854643793365 -16.91790973370892" fill="red" stroke="none" /><path d="M 108.2653958097858 119.30500536409082 l 14.8156727511788 34.60410711311514 a58.642374900714856,58.642374900714856 0 0,0 -0.9313764624875307,0.38931543685665554 l -14.217824829193807 -34.85400759299176" fill="red" stroke="none" /><path d="M 107.2578585660854 119.70592522655815 l 10.847875581200324 29.453236533022867 a52.38741064336775,52.38741064336775 0 0,0 -0.848876719580747,0.30437699005460306 l -10.339279300989842 -29.63560106411743" fill="red" stroke="none" /><path d="M 106.57524785965236 119.94407469862006 l 7.884813706203462 23.916256375092647 a46.18248610007943,46.18248610007943 0 0,0 -0.7571259140424613,0.24240780842806786 l -7.471966447070061 -24.04843703018042" fill="red" stroke="none" /><path d="M 103.7750983002368 120.6578951692458 l 7.900270251428862 43.23144503349515 a64.94737887212074,64.94737887212074 0 0,0 -1.1014797993095358,0.19150638195697556 l -7.154941480647277 -43.361029993973126" fill="red" stroke="none" /><path d="M 102.70371172650421 120.8252237178851 l 4.062010111741627 31.28745882635397 a52.55003971405878,52.55003971405878 0 0,0 -0.8980365795684085,0.10873972339220168 l -3.5228461091218386 -31.35274407847152" fill="red" stroke="none" /><path d="M 101.98527174616119 120.90594882070398 l 3.2877613905846563 34.62184534643987 a55.77760127084988,55.77760127084988 0 0,0 -0.9566009543068186,0.08253955550448733 l -2.6913161185362964 -34.67330915422302" fill="red" stroke="none" /><line stroke="#e1ed5e" stroke-width="0.3" x1="102.19456741930631" x2="102.32365962044197" y1="184.97166512339345" y2="189.96999836594603" /><path d="M 102.22038585953345 185.97133177190398 a86.0,86.0 0 0,1 -42.740103519485714,-10.115201625700543" fill="none" id="id79" stroke="none" /><text fill="#e1ed5e" style="font-size:6.75px; font-family:Arial;" text-anchor="middle"><textPath startOffset="22.20632615414155" xlink:href="#id79">July</textPath></text><path d="M 99.45781275523022 120.99299961872073 l -0.9747742879558359 37.742378583776315 a58.7549642573471,58.7549642573471 0 0,0 -1.0108082297268228,-0.0348142792248488 l 1.6243028693573016 -37.72000750612537" fill="red" stroke="none" /><path d="M 98.73552117531835 120.96189622390904 l -2.269583815785826 37.62402302778271 a58.69241461477363,58.69241461477363 0 0,0 -1.0079366842804924,-0.06951321503838093 l 2.9168832608452484 -37.57938146822805" fill="red" stroke="none" /><path d="M 97.65516085044442 120.86867818915974 l -4.22266605387601 37.5810251186437 a58.81751389992057,58.81751389992057 0 0,0 -1.0051425134750105,-0.12170876039097658 l 4.868935990402409 -37.50277082952738" fill="red" stroke="none" /><path d="M 96.93821686468263 120.77559828337769 l -5.515587093645575 37.42577991000843 a58.830023828435266,58.830023828435266 0 0,0 -1.0005702216463543,-0.15626849085524858 l 6.158993178900446 -37.325293111806076" fill="red" stroke="none" /><path d="M 95.16358092515715 120.4354850818985 l -4.001858277376918 16.909187119990282 a38.37629070691025,38.37629070691025 0 0,0 -0.6415176569714522,-0.15766943203653344 l 4.292329219091581 -16.83779642963972" fill="red" stroke="none" /><path d="M 94.46302465271185 120.25689768951611 l -9.951382817375906 36.40690647097108 a58.74245432883241,58.74245432883241 0 0,0 -0.9730794747637617,-0.27500197939639587 l 10.57659346024428 -36.230215698236165" fill="red" stroke="none" /><path d="M 92.40401165467489 119.57807347666478 l -13.62028887178034 35.10524294961933 a58.654884829229545,58.654884829229545 0 0,0 -0.9381399810157315,-0.373305259448822 l 14.22254992883793 -34.865590845764444" fill="red" stroke="none" /><line stroke="#e1ed5e" stroke-width="0.3" x1="58.666819895761336" x2="56.23545636021788" y1="174.27360380694188" y2="178.64263932499728" /><path d="M 58.180547188652646 175.14741091055294 a86.0,86.0 0 0,1 -31.652253787137756,-30.449443065178592" fill="none" id="id80" stroke="none" /><text fill="#e1ed5e" style="font-size:6.75px; font-family:Arial;" text-anchor="middle"><textPath startOffset="22.20632615414155" xlink:href="#id80">August</textPath></text><path d="M 89.4739219176387 118.17145234162733 l -18.880473256149624 32.59386993683869 a58.66739475774424,58.66739475774424 0 0,0 -0.8694846748414797,-0.513706871802867 l 19.438725802019484 -32.26404449274207" fill="red" stroke="none" /><path d="M 87.95078237400918 117.19931262002967 l -21.842197717964687 31.178023214505746 a59.06771247021445,59.06771247021445 0 0,0 -0.827714932688751,-0.5905526272789251 l 22.375639978502324 -30.797426325382602" fill="red" stroke="none" /><path d="M 87.07902340077011 116.55440617244103 l -23.199259414264613 29.722982647182647 a58.70492454328832,58.70492454328832 0 0,0 -0.7912375729795538,-0.6286069814606375 l 23.707454479961523 -29.319241751716877" fill="red" stroke="none" /><path d="M 86.24171649860922 115.8653595955263 l -24.686229094234925 28.466916065364497 a58.679904686258936,58.679904686258936 0 0,0 -0.7574112807582403,-0.6683273925695694 l 25.17258272789975 -28.03776553102264" fill="red" stroke="none" /><path d="M 85.70375840098266 115.38237550388516 l -25.65999360872075 27.609470250122715 a58.69241461477363,58.69241461477363 0 0,0 -0.7341140053513273,-0.6941506131455634 l 26.131443448462893 -27.163685000231222" fill="red" stroke="none" /><path d="M 83.95833913139862 113.55231037782056 l -16.226413912759227 13.70839338058339 a42.241858617950754,42.241858617950754 0 0,0 -0.46446733937221535,-0.5594808311035742 l 16.45997725202498 -13.427051292366054" fill="red" stroke="none" /><path d="M 83.06392112726016 112.41649034213515 l -30.33764247636737 22.24169169507568 a58.617355043685464,58.617355043685464 0 0,0 -0.5895795191771417,-0.8188743860550671 l 30.71600178792012 -21.71618370356947" fill="red" stroke="none" /><path d="M 82.85270091963577 112.12312394758628 l -30.828364947104394 21.79562434897661 a58.7549642573471,58.7549642573471 0 0,0 -0.576747382463377,-0.8308476202909105 l 31.198973236729902 -21.26173546649869" fill="red" stroke="none" /><path d="M 82.64656182679789 111.8261652097733 l -31.095596917191372 21.191285713461916 a58.62986497220016,58.62986497220016 0 0,0 -0.561162894742871,-0.838862388059199 l 31.455762917344973 -20.652886411196892" fill="red" stroke="none" /><path d="M 82.05923443525364 110.91462005526583 l -32.25490298316394 19.62290905090882 a58.7549642573471,58.7549642573471 0 0,0 -0.5182163346727389,-0.8685603846593912 l 32.58790019353491 -19.064786572363317" fill="red" stroke="none" /><line stroke="#e1ed5e" stroke-width="0.3" x1="26.63291911575756" x2="22.317208475507996" y1="142.92168965132927" y2="145.44649492493687" /><path d="M 25.769776987707644 143.4266507060508 a86.0,86.0 0 0,1 -11.730757126820373,-40.83630448921669" fill="none" id="id81" stroke="none" /><text fill="#e1ed5e" style="font-size:6.75px; font-family:Arial;" text-anchor="middle"><textPath startOffset="21.46611528233685" xlink:href="#id81">September</textPath></text><path d="M 81.18737489456691 109.33194174019688 l -33.84479417299916 16.78860050956786 a58.77998411437649,58.77998411437649 0 0,0 -0.4418204318425182,-0.910280952484782 l 34.128767861456396 -16.203530601117798" fill="red" stroke="none" /><path d="M 80.87730276802145 108.67885076344099 l -34.414020058264796 15.618829322689779 a58.792494042891185,58.792494042891185 0 0,0 -0.4103125787080391,-0.9251465456293648 l 34.67777372170411 -15.024134440567718" fill="red" stroke="none" /><path d="M 80.0844068197444 106.66101706037122 l -35.75790181411262 11.95967360204063 a58.70492454328832,58.70492454328832 0 0,0 -0.31227595119007984,-0.9610865540334558 l 35.95847001631895 -11.34238814802937" fill="red" stroke="none" /><path d="M 79.76711848015287 105.62410040840567 l -43.08928798656878 11.977457680728918 a65.72299444003177,65.72299444003177 0 0,0 -0.2936000255713508,-1.0925949170413682 l 43.2890760884819 -11.23397183051201" fill="red" stroke="none" /><path d="M 79.58551787078972 104.9243191809786 l -17.049903065023525 4.1127256702136625 a38.53891977760127,38.53891977760127 0 0,0 -0.15000711867946967,-0.6462267412201106 l 17.11817074963355 -3.818630271644978" fill="red" stroke="none" /><path d="M 79.50377843672027 104.57218783832718 l -36.702725587302744 8.187448357036235 a58.60484511517077,58.60484511517077 0 0,0 -0.2111615210021266,-0.9864763268318574 l 36.83822114702931 -7.554458210788214" fill="red" stroke="none" /><path d="M 79.23777060512086 103.15116336523772 l -62.237215040725886 9.445981366487025 a83.94996028594122,83.94996028594122 0 0,0 -0.20454187548328606,-1.4305654007328386 l 62.39059096722577 -8.373270493773786" fill="red" stroke="none" /><path d="M 79.0235259727143 100.99374915477108 l -37.78764344232246 1.790169247832253 a58.830023828435266,58.830023828435266 0 0,0 -0.039214040852910685,-1.0119401507399788 l 37.81285961602657 -1.1394518500782775" fill="red" stroke="none" /><line stroke="#e1ed5e" stroke-width="0.3" x1="15.007084014347285" x2="10.007500721073583" y1="101.09737516637583" y2="101.16192664675087" /><path d="M 14.007167355692545 101.11028546245083 a86.0,86.0 0 0,1 10.666146001902534,-42.60595125391555" fill="none" id="id82" stroke="none" /><text fill="#e1ed5e" style="font-size:6.75px; font-family:Arial;" text-anchor="middle"><textPath startOffset="22.20632615414155" xlink:href="#id82">October</textPath></text><path d="M 79.00175016825051 100.2711162175752 l -62.95722283748722 0.8128641320826073 a83.96247021445592,83.96247021445592 0 0,0 -0.0062200305948881705,-1.445316055672954 l 62.961887165371614 0.27096140179402195" fill="red" stroke="none" /><path d="M 79.01574976396665 99.18683210126434 l -37.651645181254445 -1.4590518532516616 a58.679904686258936,58.679904686258936 0 0,0 0.0478000684944807,-1.008983897458502 l 37.62095150452647 2.1069468573331727" fill="red" stroke="none" /><path d="M 79.05617556472873 98.46500227214037 l -62.706708664618766 -4.595849035080926 a83.87490071485306,83.87490071485306 0 0,0 0.11792617800926046,-1.438998067768615 l 62.61830800279001 5.67456102005732" fill="red" stroke="none" /><path d="M 79.12142395522702 97.74499172005258 l -37.64859989328505 -4.066268901946497 a58.86755361397935,58.86755361397935 0 0,0 0.11748182816686563,-1.0065125587902952 l 37.573027712114595 4.7137251990616535" fill="red" stroke="none" /><path d="M 79.21141760316559 97.0276538004421 l -37.18910619799071 -5.317288902267107 a58.56731532962669,58.56731532962669 0 0,0 0.1512824616054409,-0.9967624039819434 l 37.09206784294597 5.956650418641142" fill="red" stroke="none" /><path d="M 79.32604984820605 96.31383870115002 l -37.279615037418736 -6.646948124475118 a58.86755361397935,58.86755361397935 0 0,0 0.18645393875386884,-0.99604439643782 l 37.159675374755004 7.28767059837551" fill="red" stroke="none" /><path d="M 80.2630227832202 92.82701384747504 l -59.210931650339425 -21.518958457574875 a84.0,84.0 0 0,0 0.5055816459934896,-1.3547074518826343 l 58.83174541584431 22.534989046486853" fill="red" stroke="none" /><line stroke="#e1ed5e" stroke-width="0.3" x1="26.266209847984257" x2="21.92892807433627" y1="57.711370442889674" y2="55.22380399835377" /><path d="M 25.39875349325466 57.213857153982495 a86.0,86.0 0 0,1 29.58750427330802,-30.492523968695096" fill="none" id="id83" stroke="none" /><text fill="#e1ed5e" style="font-size:6.75px; font-family:Arial;" text-anchor="middle"><textPath startOffset="21.46611528233685" xlink:href="#id83">November</textPath></text><path d="M 84.5562425177563 85.77008943001954 l -13.772421535495724 -12.689938119496079 a39.72736298649722,39.72736298649722 0 0,0 0.4677096353430235,-0.49892002887267994 l 13.551944578182244 12.92512756524681" fill="red" stroke="none" /><path d="M 85.57189188830299 84.74124197986013 l -25.802132973380328 -27.28760419566712 a58.55480540111199,58.55480540111199 0 0,0 0.7383262302924206,-0.6861937653573867 l 25.328598859293052 27.727702547099156" fill="red" stroke="none" /><path d="M 88.39885842347998 82.49532879139004 l -34.720493614239444 -52.38888094840535 a83.84988085782368,83.84988085782368 0 0,0 1.209965656379975,-0.786995320293898 l 33.813560932075184 52.978775192858784" fill="red" stroke="none" /><line stroke="#e1ed5e" stroke-width="0.3" x1="56.762969772571076" x2="54.21961505331055" y1="26.818313649435495" y2="22.513508569990535" /><path d="M 56.25429882871897 25.957352633546506 a86.0,86.0 0 0,1 42.265352541879196,-11.944610805530505" fill="none" id="id84" stroke="none" /><text fill="#e1ed5e" style="font-size:6.75px; font-family:Arial;" text-anchor="middle"><textPath startOffset="22.20632615414155" xlink:href="#id84">December</textPath></text><path d="M 89.63071344664047 81.73862282372117 l -30.959609336043258 -54.523047502487785 a83.69976171564734,83.69976171564734 0 0,0 1.2589875464944251,-0.7006252065472548 l 30.016497700476787 55.047888106595224" fill="red" stroke="none" /><path d="M 90.26544431104013 81.39251694778311 l -17.66949435122761 -33.77502036940322 a59.117752184273236,59.117752184273236 0 0,0 0.9057388934579224,-0.46395464031862865 l 17.08549497018092 34.074167535034356" fill="red" stroke="none" /><path d="M 90.91171255644093 81.06846463323043 l -5.587239460933055 -11.638608716346019 a33.910246227164414,33.910246227164414 0 0,0 0.5283891155106402,-0.24808577465676296 l 5.386072134122806 11.73305947364279" fill="red" stroke="none" /><path d="M 92.23578459929587 80.48803036053334 l -4.657604194902143 -11.704857085152655 a33.59749801429706,33.59749801429706 0 0,0 0.539186783081334,-0.20919609506628808 l 4.455434246821132 11.783295884109496" fill="red" stroke="none" /><path d="M 97.47563105711357 79.15227682838746 l -5.615166977405429 -46.37335086743519 a67.71207307386814,67.71207307386814 0 0,0 1.1583062486912625,-0.1301492032455166 l 4.816094025204449 46.46313602415131" fill="red" stroke="none" /></svg>